<svg xmlns="http://www.w3.org/2000/svg" width="54" height="54" viewBox="0 0 54 54">
  <g fill="#FF9F00">
    <path d="M53.5513846,52.2886154 L49.0607401,48.6960998 C48.9014345,48.5686778 48.7033971,48.4992973 48.4994096,48.4994096 L39.9384449,48.4994096 L36.9449813,44.906894 L49.3975385,44.906894 C51.8763742,44.9039751 53.885264,42.8950852 53.888183,40.4162495 L53.888183,4.49109356 C53.885264,2.0122578 51.8763742,0.00336798337 49.3975385,0.000449064449 L4.49109356,0.000449064449 C2.0122578,0.00336798337 0.00336798337,2.0122578 0.000449064449,4.49109356 L0.000449064449,40.4162495 C0.00336798337,42.8950852 2.0122578,44.9039751 4.49109356,44.906894 L16.9436507,44.906894 L13.9501871,48.4994096 L5.38922245,48.4994096 C5.18523493,48.4992973 4.98719751,48.5686778 4.82789189,48.6960998 L0.337247401,52.2886154 C-0.0501829522,52.5983576 -0.113051975,53.1636175 0.196690229,53.5509356 C0.367222453,53.7641289 0.625546778,53.8882952 0.898577963,53.888183 L52.9900541,53.888183 C53.4860457,53.8884075 53.8884075,53.4864948 53.888632,52.9905031 C53.8887443,52.7173597 53.7646902,52.4591476 53.5513846,52.2886154 Z M4.49109356,43.1106362 C3.00300624,43.1106362 1.79670686,41.9043368 1.79670686,40.4162495 L1.79670686,4.49109356 C1.79670686,3.00300624 3.00300624,1.79670686 4.49109356,1.79670686 L49.3975385,1.79670686 C50.8856258,1.79670686 52.0919252,3.00300624 52.0919252,4.49109356 L52.0919252,40.4162495 C52.0919252,41.9043368 50.8856258,43.1106362 49.3975385,43.1106362 L4.49109356,43.1106362 Z M19.2814802,44.906894 L34.6071518,44.906894 L37.6006154,48.4994096 L16.2880166,48.4994096 L19.2814802,44.906894 Z M3.45914345,52.0919252 L5.7044657,50.2956674 L48.1859626,50.2956674 L50.4294886,52.0919252 L3.45914345,52.0919252 Z"/>
    <path d="M49.3975385,3.59296466 L4.49109356,3.59296466 C3.99510187,3.59296466 3.59296466,3.99510187 3.59296466,4.49109356 L3.59296466,36.8237339 C3.59296466,37.3197256 3.99510187,37.7218628 4.49109356,37.7218628 L49.3975385,37.7218628 C49.8935301,37.7218628 50.2956674,37.3197256 50.2956674,36.8237339 L50.2956674,4.49109356 C50.2956674,3.99510187 49.8935301,3.59296466 49.3975385,3.59296466 Z M16.3203493,35.925605 L18.3025198,33.9434345 C18.5920541,33.6537879 18.648973,33.204948 18.4408316,32.8522079 C17.9729064,32.0590478 17.6189314,31.2040291 17.3891227,30.3122994 C17.286736,29.9158877 16.9291684,29.638815 16.5197339,29.6387027 L12.5742536,29.6387027 L12.5742536,26.0461871 L16.520632,26.0461871 C16.9300665,26.0460748 17.2876341,25.7690021 17.3900208,25.3725904 C17.6194927,24.4808607 17.9732432,23.625842 18.4408316,22.8326819 C18.6488607,22.4799418 18.5920541,22.0311019 18.3025198,21.7414553 L15.5129314,18.9509688 L18.0528399,16.4110603 L20.8424283,19.2006486 C21.1320748,19.490183 21.5809148,19.5469896 21.9336549,19.3389605 C22.726815,18.8710353 23.5818337,18.5170603 24.4735634,18.2872516 C24.8699751,18.1848649 25.1470478,17.8272973 25.1471601,17.4178628 L25.1471601,13.4723825 L28.7396757,13.4723825 L28.7396757,17.4187609 C28.7397879,17.8281954 29.0168607,18.185763 29.4132723,18.2881497 C30.3050021,18.5176216 31.1600208,18.8713721 31.9531809,19.3389605 C32.305921,19.5471019 32.7547609,19.490183 33.0444075,19.2006486 L35.8357921,16.4110603 L38.3757006,18.9509688 L35.5861123,21.7405572 C35.296578,22.0302037 35.2397713,22.4790437 35.4478004,22.8317838 C35.9157256,23.6248316 36.2695884,24.4798503 36.4986112,25.3716923 C36.6009979,25.768104 36.9585655,26.0451767 37.368,26.045289 L41.3143784,26.045289 L41.3143784,29.6378046 L37.368,29.6378046 C36.9585655,29.6379168 36.6009979,29.9149896 36.4986112,30.3114012 C36.2691393,31.203131 35.9153888,32.0581497 35.4478004,32.8513098 C35.2397713,33.2040499 35.296578,33.6528898 35.5861123,33.9425364 L37.5682827,35.925605 L16.3203493,35.925605 Z M48.4994096,35.925605 L40.1081913,35.925605 L37.332973,33.1503867 C37.6147609,32.5983742 37.8520915,32.0248067 38.0424948,31.4349605 L42.2125073,31.4349605 C42.708499,31.4349605 43.1106362,31.0328233 43.1106362,30.5368316 L43.1106362,25.1480582 C43.1106362,24.6520665 42.708499,24.2499293 42.2125073,24.2499293 L38.0424948,24.2499293 C37.8524283,23.6599709 37.61521,23.0862911 37.332973,22.5345031 L40.280632,19.5868441 C40.6312391,19.2361247 40.6312391,18.6676091 40.280632,18.3168898 L36.4698711,14.5061289 C36.1191518,14.1555218 35.5506362,14.1555218 35.1999168,14.5061289 L32.2522578,17.4537879 C31.7002453,17.172 31.1266778,16.9346694 30.5368316,16.7442661 L30.5368316,12.5742536 C30.5368316,12.078262 30.1346944,11.6761247 29.6387027,11.6761247 L24.2499293,11.6761247 C23.7539376,11.6761247 23.3518004,12.078262 23.3518004,12.5742536 L23.3518004,16.7442661 C22.761842,16.9343326 22.1881622,17.1715509 21.6363742,17.4537879 L18.6887152,14.5061289 C18.3379958,14.1555218 17.7694802,14.1555218 17.4187609,14.5061289 L13.608,18.3168898 C13.2573929,18.6676091 13.2573929,19.2361247 13.608,19.5868441 L16.555659,22.5345031 C16.2738711,23.0865156 16.0365405,23.6600832 15.8461372,24.2499293 L11.6761247,24.2499293 C11.1801331,24.2499293 10.7779958,24.6520665 10.7779958,25.1480582 L10.7779958,30.5368316 C10.7779958,31.0328233 11.1801331,31.4349605 11.6761247,31.4349605 L15.8461372,31.4349605 C16.0362037,32.0249189 16.273422,32.5985988 16.555659,33.1503867 L13.7804407,35.925605 L5.38922245,35.925605 L5.38922245,5.38922245 L48.4994096,5.38922245 L48.4994096,35.925605 Z"/>
    <rect width="8.981" height="1.796" x="22.454" y="39.518"/>
    <path d="M26.944316,20.6574137 C22.976158,20.6574137 19.7592848,23.8742869 19.7592848,27.8424449 C19.7637755,31.8088067 22.9779543,35.0229854 26.944316,35.0274761 C30.912474,35.0274761 34.1293472,31.8106029 34.1293472,27.8424449 C34.1293472,23.8742869 30.912474,20.6574137 26.944316,20.6574137 Z M26.944316,33.2312183 C23.9681414,33.2312183 21.5555426,30.8186195 21.5555426,27.8424449 C21.5584615,24.8675052 23.9693763,22.4565904 26.944316,22.4536715 C29.9204906,22.4536715 32.3330894,24.8662703 32.3330894,27.8424449 C32.3330894,30.8186195 29.9204906,33.2312183 26.944316,33.2312183 Z"/>
    <rect width="1.796" height="1.796" x="15.269" y="8.084"/>
    <rect width="1.796" height="1.796" x="18.861" y="8.084"/>
    <rect width="1.796" height="1.796" x="22.454" y="8.084"/>
    <rect width="1.796" height="1.796" x="26.046" y="8.084"/>
    <rect width="1.796" height="1.796" x="29.639" y="8.084"/>
    <rect width="1.796" height="1.796" x="33.231" y="8.084"/>
    <rect width="1.796" height="1.796" x="36.824" y="8.084"/>
  </g>
</svg>
