<svg xmlns="http://www.w3.org/2000/svg" width="54" height="54" viewBox="0 0 54 54">
  <g fill="#FF9F00">
    <path d="M40.5,13.5 L39.4299,13.5 C39.2031,7.767 36.7758,1.5138 30.6,0.9549 L30.6,0.9 C30.6,0.402975 30.197025,0 29.7,0 L24.3,0 C23.802975,0 23.4,0.402975 23.4,0.9 L23.4,0.9549 C17.2242,1.5138 14.7969,7.767 14.5701,13.5 L13.5,13.5 C13.002975,13.5 12.6,13.902975 12.6,14.4 L12.6,18 C12.6,18.497025 13.002975,18.9 13.5,18.9 L40.5,18.9 C40.997025,18.9 41.4,18.497025 41.4,18 L41.4,14.4 C41.4,13.902975 40.9971375,13.5 40.5,13.5 Z M39.6,17.1 L14.4,17.1 L14.4,15.3 L19.8,15.3 L19.8,13.5 L16.38,13.5 C16.5303,10.7766 17.4897,3.4371 23.4,2.7567 L23.4,10.8 L25.2,10.8 L25.2,1.8 L28.8,1.8 L28.8,10.8 L30.6,10.8 L30.6,2.7567 C36.5094,3.4371 37.4688,10.7766 37.62,13.5 L21.6,13.5 L21.6,15.3 L39.6,15.3 L39.6,17.1 Z"/>
    <rect width="1.8" height="8.1" x="37.8" y="39.6"/>
    <rect width="1.8" height="1.8" x="37.8" y="49.5"/>
    <path d="M52.2,41.4 L47.9133,41.4 C47.4107625,39.4441875 46.6335,37.569375 45.6048,35.8317 L48.6387,32.7987 C49.33845,32.0945625 49.33845,30.9576375 48.6387,30.2535 L43.5474,25.1622 C42.8445,24.459525 41.7051,24.459525 41.0022,25.1622 L37.9701,28.1952 C36.2314125,27.1670625 34.35615,26.3899125 32.4,25.8867 L32.4,21.6 C32.4,20.6058375 31.5941625,19.8 30.6,19.8 L23.4,19.8 C22.4058375,19.8 21.6,20.6058375 21.6,21.6 L21.6,25.8867 C19.6443,26.3898 17.7696,27.16695 16.0317,28.1952 L12.9987,25.1622 C12.2958,24.459525 11.1564,24.459525 10.4535,25.1622 L5.3613,30.2544 C4.6591875,30.9571875 4.6591875,32.0959125 5.3613,32.7987 L8.3943,35.8317 C7.36605,37.5694875 6.589125,39.4443 6.0867,41.4 L1.8,41.4 C0.8058375,41.4 0,42.2058375 0,43.2 L0,50.4 C0,51.3941625 0.8058375,52.2 1.8,52.2 L14.2848,52.2 C14.781825,52.1996625 15.184575,51.796575 15.1842375,51.2994375 C15.184125,51.197175 15.1666875,51.0957 15.1326,50.9994 C12.8003625,44.4562875 16.21395,37.26135 22.7570625,34.9291125 C27.1292625,33.37065 32.0043375,34.346925 35.4391875,37.4688 L26.28,51.2019 C25.72875,52.029225 25.9525125,53.1466875 26.7798375,53.6979375 C27.0763875,53.8954875 27.4249125,54.000675 27.7812,54 L49.6188,54 C50.5994625,54.0079875 51.4009125,53.2195875 51.4090125,52.238925 C51.409125,52.2259875 51.409125,52.2129375 51.4089,52.2 L52.2,52.2 C53.1941625,52.2 54,51.3941625 54,50.4 L54,43.2 C54,42.2058375 53.1941625,41.4 52.2,41.4 Z M27.7812,52.2 L38.7,35.82 L49.6188,52.2 L27.7812,52.2 Z M52.2,50.4 L50.58,50.4 L40.1976,34.8246 C39.646125,33.9975 38.52855,33.774075 37.70145,34.32555 C37.5037875,34.4572875 37.33425,34.6269375 37.2024,34.8246 L36.45,35.955 C33.83865,33.6576375 30.47805,32.3933625 27,32.4 C19.050975,32.40945 12.60945,38.850975 12.6,46.8 C12.6007875,48.0151125 12.7580625,49.22505 13.068,50.4 L1.8,50.4 L1.8,43.2 L6.7968,43.2 C7.2187875,43.1998875 7.584075,42.9064875 7.6752,42.4944 C8.1716625,40.2526125 9.057825,38.11545 10.2933,36.18 C10.51965,35.82405 10.4684625,35.358525 10.17,35.0604 L6.6348,31.5261 L11.7261,26.4357 L15.2613,29.97 C15.55965,30.268125 16.025175,30.318975 16.3809,30.0924 C18.3166875,28.8577125 20.4537375,27.97155 22.6953,27.4743 C23.1069375,27.382725 23.3998875,27.0176625 23.4,26.5959 L23.4,21.6 L30.6,21.6 L30.6,26.5959 C30.6001125,27.0176625 30.89295,27.382725 31.3047,27.4743 C33.546825,27.971775 35.68455,28.8581625 37.6209,30.0933 C37.9765125,30.31875 38.4408,30.26745 38.7387,29.97 L42.2739,26.4357 L47.3652,31.5261 L43.83,35.0595 C43.531425,35.358075 43.4804625,35.82405 43.7076,36.18 C44.9429625,38.11545 45.829125,40.2526125 46.3257,42.4944 C46.416825,42.9064875 46.7821125,43.1998875 47.2041,43.2 L52.2,43.2 L52.2,50.4 Z"/>
  </g>
</svg>
