<svg xmlns="http://www.w3.org/2000/svg" width="54" height="54" viewBox="0 0 54 54">
  <g fill="#FF9F00">
    <path d="M52.4296842 45.1732632C52.0748421 45.4615789 51.7641053 45.7732632 51.4631579 46.0732632 50.6062105 46.9302105 49.9298947 47.6074737 48.5052632 47.6074737 47.0806316 47.6074737 46.4043158 46.9302105 45.5473684 46.0732632 44.6302105 45.1561053 43.4876842 44.0145263 41.3193684 44.0145263 39.1510526 44.0145263 38.0093684 45.1562105 37.0913684 46.0732632 36.2344211 46.9302105 35.5581053 47.6074737 34.1334737 47.6074737 32.7088421 47.6074737 32.0325263 46.9302105 31.1755789 46.0732632 30.2584211 45.1561053 29.1158947 44.0145263 26.9475789 44.0145263 24.7792632 44.0145263 23.6375789 45.1562105 22.7195789 46.0732632 21.8626316 46.9302105 21.1863158 47.6074737 19.7616842 47.6074737 18.3370526 47.6074737 17.6607368 46.9302105 16.8037895 46.0732632 15.8866316 45.1561053 14.7441053 44.0145263 12.5757895 44.0145263 10.4074737 44.0145263 9.26536842 45.1562105 8.34736842 46.0732632 7.49042105 46.9302105 6.81410526 47.6074737 5.38947368 47.6074737 3.96484211 47.6074737 3.28852632 46.9302105 2.43157895 46.0732632 2.13063158 45.7732632 1.81989474 45.4624211 1.46421053 45.1741053 1.07978947 44.8606316.512947368 44.9208421.201263158 45.3052632-.111368421 45.6906316-.0529473684 46.2565263.332421053 46.5690526.616315789 46.7990526.881263158 47.064 1.16147368 47.3442105 2.07947368 48.2613684 3.22115789 49.4038947 5.38947368 49.4038947 7.55778947 49.4038947 8.70042105 48.2613684 9.61747368 47.3442105 10.4744211 46.4872632 11.1507368 45.8109474 12.5753684 45.8109474 14 45.8109474 14.6763158 46.4873684 15.5332632 47.3442105 16.4512632 48.2613684 17.5929474 49.4038947 19.7612632 49.4038947 21.9295789 49.4038947 23.0722105 48.2613684 23.9892632 47.3442105 24.8462105 46.4872632 25.5225263 45.8109474 26.9471579 45.8109474 28.3717895 45.8109474 29.0481053 46.4873684 29.9050526 47.3442105 30.8230526 48.2613684 31.9647368 49.4038947 34.1330526 49.4038947 36.3013684 49.4038947 37.444 48.2613684 38.3610526 47.3442105 39.218 46.4872632 39.8943158 45.8109474 41.3189474 45.8109474 42.7435789 45.8109474 43.4198947 46.4873684 44.2768421 47.3442105 45.1948421 48.2613684 46.3365263 49.4038947 48.5048421 49.4038947 50.6731579 49.4038947 51.8157895 48.2613684 52.7328421 47.3442105 53.014 47.0630526 53.2798947 46.7981053 53.5628421 46.5672632 53.9482105 46.2537895 54.0056842 45.6878947 53.6930526 45.3034737 53.3818947 44.9190526 52.8168421 44.8606316 52.4296842 45.1732632zM5.68947368 30.5121053C5.914 31.8657895 6.26705263 33.1906316 6.74042105 34.4652632L2.59147368 36.8608421C2.38484211 36.9793684 2.234 37.1761053 2.17284211 37.4061053 2.11178947 37.6361053 2.14315789 37.8812632 2.26263158 38.0878947 3.89747368 40.9183158 7.41673684 41.9970526 10.3288421 40.6595789 10.7429474 41.1446316 11.2783158 41.7267368 11.9276842 42.4004211 12.2734737 42.7578947 12.8429474 42.7669474 13.1987368 42.422 13.5553684 42.0770526 13.5652632 41.5085263 13.2211579 41.1518947 12.3390526 40.2392632 11.6653684 39.4865263 11.272 38.9736842 10.998 38.618 10.5012632 38.5191579 10.1114737 38.7428421L9.95431579 38.8326316C8.07789474 39.9168421 5.73168421 39.4874737 4.34568421 37.9227368L8.30789474 35.6357895C8.69957895 35.4103158 8.86210526 34.9297895 8.68968421 34.5129474 8.03126316 32.9275789 7.58484211 31.2505263 7.35936842 29.5258947 7.30094737 29.0785263 6.91926316 28.7444211 6.46831579 28.7444211L6.28778947 28.7444211C4.11852632 28.7444211 2.30494737 27.1985263 1.88726316 25.1514737L6.46831579 25.1514737C6.91926316 25.1514737 7.30094737 24.8164211 7.35936842 24.3690526 7.58484211 22.6444211 8.03126316 20.9673684 8.68968421 19.382 8.86210526 18.9652632 8.69957895 18.4846316 8.30789474 18.2591579L8.15873684 18.1729474C7.11947368 17.5737895 6.37568421 16.6054737 6.06494737 15.4467368 5.83315789 14.5826316 5.86378947 13.6897895 6.14221053 12.8607368L10.1088421 15.1512632C10.4986316 15.3775789 10.9953684 15.2788421 11.2711579 14.9212632 12.3256842 13.5496842 13.5535789 12.3217895 14.9215789 11.2708421 15.2790526 10.9968421 15.3778947 10.5010526 15.1524211 10.1103158L15.0634737 9.954C14.4625263 8.91557895 14.3026316 7.70484211 14.6134737 6.54610526 14.8452632 5.682 15.3168421 4.92389474 15.9725263 4.34536842L18.2612632 8.30936842C18.4875789 8.70010526 18.9708421 8.86178947 19.3823158 8.68842105 20.9676842 8.03094737 22.6456842 7.58357895 24.3693684 7.35905263 24.8167368 7.30063158 25.1517895 6.91978947 25.1517895 6.46884211L25.1517895 6.28831579C25.1517895 5.08915789 25.6188421 3.96094737 26.4668421 3.11210526 27.0991579 2.47978947 27.8869474 2.05936842 28.7438947 1.886L28.7438947 6.46884211C28.7438947 6.91978947 29.0789474 7.30063158 29.5262105 7.35905263 31.2490526 7.58357895 32.9269474 8.03094737 34.5132632 8.68936842 34.9246316 8.86 35.4078947 8.70010526 35.6343158 8.30936842L35.7223158 8.15842105C36.3214737 7.11915789 37.2897895 6.37631579 38.4485263 6.06547368 39.3144211 5.83368421 40.2072632 5.86336842 41.0345263 6.14178947L38.744 10.1093684C38.5176842 10.5001053 38.6164211 10.9977895 38.974 11.2716842 40.342 12.3226316 41.5698947 13.5505263 42.6244211 14.9221053 42.9002105 15.2805263 43.3969474 15.3792632 43.7867368 15.1521053L43.9412632 15.0631579C44.9805263 14.4631579 46.1923158 14.3032632 47.3491579 14.614 48.2132632 14.8448421 48.9713684 15.3173684 49.5498947 15.9730526L45.5876842 18.26C45.196 18.4854737 45.0334737 18.966 45.2058947 19.3828421 45.8643158 20.9691579 46.3116842 22.6470526 46.5362105 24.3698947 46.5936842 24.8172632 46.9754737 25.1523158 47.4264211 25.1523158L47.6069474 25.1523158 47.6087368 25.1523158C48.8078947 25.1523158 49.9351579 25.6193684 50.7831579 26.4673684 51.4155789 27.0996842 51.8358947 27.8874737 52.0102105 28.7444211L47.4264211 28.7444211C46.9754737 28.7444211 46.5937895 29.0794737 46.5362105 29.5268421 46.3107368 31.2505263 45.8634737 32.9285263 45.2050526 34.5130526 45.0326316 34.9307368 45.1961053 35.4104211 45.5868421 35.6358947L45.7368421 35.7230526C47.6150526 36.8063158 48.4153684 39.052 47.7525263 41.0344211L43.7831579 38.7429474C43.3942105 38.5184211 42.8966316 38.6171579 42.6226316 38.9737895 42.1627368 39.5737895 41.6624211 40.1523158 41.1369474 40.6948421 40.792 41.0514737 40.8010526 41.62 41.1585263 41.9649474 41.5133684 42.3089474 42.0818947 42.3017895 42.4277895 41.9443158 42.8175789 41.5418947 43.1957895 41.1196842 43.5550526 40.6849474L47.7103158 43.0850526C47.8486316 43.1641053 48.004 43.2053684 48.1594737 43.2053684 48.2375789 43.2053684 48.3157895 43.1946316 48.3921053 43.1748421 48.6229474 43.1128421 48.8187368 42.962 48.9382105 42.7553684 50.5685263 39.9294737 49.7493684 36.35 47.1434737 34.4932632 47.6204211 33.2186316 47.9734737 31.8946316 48.2007368 30.5409474L52.9973684 30.5418947C53.2363158 30.5418947 53.4644211 30.4466316 53.6324211 30.2787368 53.8012632 30.1098947 53.8955789 29.8816842 53.8955789 29.6427368 53.8946316 27.9630526 53.2407368 26.3838947 52.0524211 25.1964211 51.0068421 24.1508421 49.6586316 23.5193684 48.2052632 23.3837895 47.9807368 22.0301053 47.6286316 20.7061053 47.1543158 19.4306316L51.3032632 17.0350526C51.5098947 16.9165263 51.6607368 16.7197895 51.7218947 16.4897895 51.7838947 16.2597895 51.7515789 16.0146316 51.6329474 15.808 50.7922105 14.3537895 49.4358947 13.3126316 47.8145263 12.8778947 46.3854737 12.4961053 44.9014737 12.6228421 43.5748421 13.2327368 42.7044211 12.1790526 41.7361053 11.2098947 40.6851579 10.3394737L43.0844211 6.18505263C43.3323158 5.75568421 43.1850526 5.206 42.7556842 4.958 41.2995789 4.11810526 39.6064211 3.89536842 37.9832632 4.33010526 36.5568421 4.71273684 35.3370526 5.56252632 34.4935789 6.75084211 33.2181053 6.27473684 31.8941053 5.92084211 30.5404211 5.69452632L30.5404211.898736842C30.5404211.402947368 30.1389474.000526315789 29.6422105.000526315789L29.6412632.000526315789C27.9624211.000526315789 26.3833684.654421053 25.1967368 1.84189474 24.1511579 2.88747368 23.5196842 4.23663158 23.3831579 5.68905263 22.0294737 5.91452632 20.7046316 6.26663158 19.43 6.74L17.0352632 2.59189474C16.7864211 2.16168421 16.2349474 2.01526316 15.8083158 2.26315789 14.3541053 3.10305263 13.3129474 4.45842105 12.8782105 6.08157895 12.4955789 7.50978947 12.6231579 8.99463158 13.2321053 10.3204211 12.1803158 11.1890526 11.212 12.1573684 10.3388421 13.2101053L6.18536842 10.8117895C5.75515789 10.5629474 5.20631579 10.7103158 4.95831579 11.1405263 4.11842105 12.5947368 3.89484211 14.2888421 4.33042105 15.9111579 4.71221053 17.3375789 5.56189474 18.5573684 6.75115789 19.4026316 6.27505263 20.6772632 5.92115789 22.0012632 5.69389474 23.3549474L.898210526 23.3549474C.401473684 23.3549474 0 23.7564211 0 24.2531579 0 27.5182105 2.50157895 30.2102105 5.68947368 30.5121053z"/>
    <path d="M52.4296842 49.6644211C52.0748421 49.9527368 51.7641053 50.2644211 51.4631579 50.5653684 50.6062105 51.4213684 49.9298947 52.0986316 48.5052632 52.0986316 47.0806316 52.0986316 46.4043158 51.4213684 45.5473684 50.5653684 44.6302105 49.6473684 43.4876842 48.5056842 41.3193684 48.5056842 39.1510526 48.5056842 38.0093684 49.6473684 37.0913684 50.5653684 36.2344211 51.4213684 35.5581053 52.0986316 34.1334737 52.0986316 32.7088421 52.0986316 32.0325263 51.4213684 31.1755789 50.5653684 30.2584211 49.6473684 29.1158947 48.5056842 26.9475789 48.5056842 24.7792632 48.5056842 23.6375789 49.6473684 22.7195789 50.5653684 21.8626316 51.4213684 21.1863158 52.0986316 19.7616842 52.0986316 18.3370526 52.0986316 17.6607368 51.4213684 16.8037895 50.5653684 15.8866316 49.6473684 14.7441053 48.5056842 12.5757895 48.5056842 10.4074737 48.5056842 9.26536842 49.6473684 8.34736842 50.5653684 7.49042105 51.4213684 6.81410526 52.0986316 5.38947368 52.0986316 3.96484211 52.0986316 3.28852632 51.4213684 2.43157895 50.5644211 2.13063158 50.2644211 1.81989474 49.9535789 1.46421053 49.6652632 1.07978947 49.3517895.512947368 49.4128421.201263158 49.7964211-.111368421 50.1817895-.0529473684 50.7476842.332421053 51.0602105.616315789 51.2902105.881263158 51.5551579 1.16147368 51.8353684 2.07947368 52.7525263 3.22115789 53.8950526 5.38947368 53.8950526 7.55778947 53.8950526 8.70042105 52.7525263 9.61747368 51.8353684 10.4744211 50.9784211 11.1507368 50.3021053 12.5753684 50.3021053 14 50.3021053 14.6763158 50.9785263 15.5332632 51.8353684 16.4512632 52.7525263 17.5929474 53.8950526 19.7612632 53.8950526 21.9295789 53.8950526 23.0722105 52.7525263 23.9892632 51.8353684 24.8462105 50.9784211 25.5225263 50.3021053 26.9471579 50.3021053 28.3717895 50.3021053 29.0481053 50.9785263 29.9050526 51.8353684 30.8230526 52.7525263 31.9647368 53.8950526 34.1330526 53.8950526 36.3013684 53.8950526 37.444 52.7525263 38.3610526 51.8353684 39.218 50.9784211 39.8943158 50.3021053 41.3189474 50.3021053 42.7435789 50.3021053 43.4198947 50.9785263 44.2768421 51.8353684 45.1948421 52.7525263 46.3365263 53.8950526 48.5048421 53.8950526 50.6731579 53.8950526 51.8157895 52.7525263 52.7328421 51.8353684 53.014 51.5542105 53.2798947 51.2892632 53.5628421 51.0584211 53.9482105 50.7449474 54.0056842 50.1790526 53.6930526 49.7946316 53.3818947 49.4102105 52.8168421 49.3509474 52.4296842 49.6644211zM23.8456842 37.6288421C23.9750526 37.6944211 24.1142105 37.7267368 24.2526316 37.7267368 24.5122105 37.7267368 24.7673684 37.6135789 24.9433684 37.4033684L33.9257895 26.6244211C34.1485263 26.3567368 34.1970526 25.984 34.048 25.6677895 33.9007368 25.3525263 33.5835789 25.1512632 33.2350526 25.1512632L28.9414737 25.1512632 30.5232632 17.2430526C30.6058947 16.8271579 30.3875789 16.4112632 29.9995789 16.2424211 29.6115789 16.0753684 29.1578947 16.1992632 28.9117895 16.5451579L19.9293684 29.1196842C19.7335789 29.3936842 19.7074737 29.7538947 19.8610526 30.0529474 20.0146316 30.352 20.3227368 30.5407368 20.6595789 30.5407368L24.8984211 30.5407368 23.3812632 36.6102105C23.2797895 37.0162105 23.4729474 37.4393684 23.8456842 37.6288421zM22.4049474 28.7443158L27.9408421 20.9942105 26.9653684 25.8725263C26.9124211 26.1366316 26.9806316 26.4106316 27.1512632 26.6181053 27.3218947 26.8265263 27.5761053 26.9477895 27.8455789 26.9477895L31.3172632 26.9477895 26.076 33.2364211 26.9203158 29.8598947C26.9876842 29.5913684 26.9274737 29.3074737 26.7568421 29.0891579 26.5870526 28.8717895 26.3256842 28.7442105 26.0490526 28.7442105L22.4049474 28.7442105 22.4049474 28.7443158z"/>
  </g>
</svg>
