<svg xmlns="http://www.w3.org/2000/svg" width="54" height="50" viewBox="0 0 54 50">
  <g fill="#FF9F00">
    <path d="M48.6,0 L0.9,0 C0.402975,0 0,0.402975 0,0.9 L0,48.6 C0,49.097025 0.402975,49.5 0.9,49.5 L27.9,49.5 C28.397025,49.4998875 28.7998875,49.0969125 28.799775,48.599775 C28.799775,48.3611625 28.7049375,48.13245 28.5363,47.9637 L20.1726,39.6 L47.7,39.6 L47.7,44.1 C47.7,44.597025 48.102975,45 48.6,45 C51.5811375,44.997075 53.997075,42.5811375 54,39.6 L54,5.4 C53.997075,2.4188625 51.5811375,0.002925 48.6,0 Z M25.7274,47.7 L1.8,47.7 L1.8,23.7726 L25.7274,47.7 Z M19.1106,12.6 L15.9606,14.4 L8.1,14.4 L8.1,12.6 L19.1106,12.6 Z M8.1,10.8 L8.1,5.4 L11.7,5.4 L11.7,10.8 L8.1,10.8 Z M11.7,16.2 L11.7,31.1274 L8.1,27.5274 L8.1,16.2 L11.7,16.2 Z M52.2,39.6 C52.1978625,41.2410375 51.088275,42.6738375 49.5,43.0866 L49.5,10.7253 C50.50755,10.5501375 51.444225,10.0911375 52.2,9.4023 L52.2,39.6 Z M48.6,9 C48.102975,9 47.7,9.402975 47.7,9.9 L47.7,37.8 L18.3726,37.8 L13.5,32.9274 L13.5,16.2 L16.2,16.2 C16.3578375,16.2007875 16.5130875,16.1598375 16.65,16.0812 L22.95,12.4812 C23.3814375,12.234375 23.531175,11.6845875 23.28435,11.25315 C23.123475,10.9720125 22.824,10.7989875 22.5,10.8 L13.5,10.8 L13.5,9 L22.5,9 C22.997025,9.0016875 23.40135,8.600175 23.40315,8.10315 C23.404275,7.7792625 23.23125,7.479675 22.95,7.3188 L16.65,3.7188 C16.5130875,3.6401625 16.3578375,3.5992125 16.2,3.6 L7.2,3.6 C6.702975,3.6 6.3,4.002975 6.3,4.5 L6.3,7.2 L4.5,7.2 L4.5,9 L6.3,9 L6.3,17.1 L5.4,17.1 L5.4,16.2 L3.6,16.2 L3.6,19.8 L5.4,19.8 L5.4,18.9 L6.3,18.9 L6.3,25.7274 L1.8,21.2274 L1.8,1.8 L48.6,1.8 C50.5882125,1.8 52.2,3.4117875 52.2,5.4 C52.2,7.3882125 50.5882125,9 48.6,9 Z M13.5,7.2 L13.5,5.4 L15.9606,5.4 L19.1106,7.2 L13.5,7.2 Z"/>
    <path d="M19.5363 44.3637L5.1363 29.9637C4.7847375 29.61225 4.214925 29.6123625 3.863475 29.963925 3.6948375 30.1325625 3.6 30.3613875 3.6 30.6L3.6 45C3.6 45.497025 4.002975 45.9 4.5 45.9L18.9 45.9C19.397025 45.8998875 19.7998875 45.4969125 19.799775 44.999775 19.799775 44.761275 19.7049375 44.53245 19.5363 44.3637zM6.3 44.1L5.4 44.1 5.4 39.6 6.3 39.6 6.3 44.1zM6.3 37.8L5.4 37.8 5.4 32.7726 6.3 33.6726 6.3 37.8zM11.7 44.1L8.1 44.1 8.1 35.4726 11.7 39.0726 11.7 44.1zM13.5 44.1L13.5 40.8726 16.7274 44.1 13.5 44.1zM44.82 6.66L42.12 3.06C41.79285 2.6623125 41.2052625 2.605275 40.807575 2.932425 40.761 2.970675 40.71825 3.013425 40.68 3.06L37.98 6.66C37.8631125 6.8158125 37.8 7.0052625 37.8 7.2L37.8 33.3C37.8 35.2882125 39.4117875 36.9 41.4 36.9 43.3882125 36.9 45 35.2882125 45 33.3L45 7.2C45 7.0052625 44.9368875 6.8158125 44.82 6.66zM41.4 5.1003L42.975 7.2 39.825 7.2 41.4 5.1003zM39.6 9L40.5 9 40.5 29.7 39.6 29.7 39.6 9zM43.2 33.3C43.2 34.2941625 42.3941625 35.1 41.4 35.1 40.4058375 35.1 39.6 34.2941625 39.6 33.3L39.6 31.5 43.2 31.5 43.2 33.3zM43.2 29.7L42.3 29.7 42.3 9 43.2 9 43.2 29.7zM35.1 2.7L29.7 2.7C29.202975 2.7 28.8 3.102975 28.8 3.6L28.8 36C28.8 36.497025 29.202975 36.9 29.7 36.9L35.1 36.9C35.597025 36.9 36 36.497025 36 36L36 3.6C36 3.102975 35.597025 2.7 35.1 2.7zM34.2 35.1L30.6 35.1 30.6 33.3 32.4 33.3 32.4 31.5 30.6 31.5 30.6 29.7 32.4 29.7 32.4 27.9 30.6 27.9 30.6 26.1 32.4 26.1 32.4 24.3 30.6 24.3 30.6 22.5 32.4 22.5 32.4 20.7 30.6 20.7 30.6 18.9 32.4 18.9 32.4 17.1 30.6 17.1 30.6 15.3 32.4 15.3 32.4 13.5 30.6 13.5 30.6 11.7 32.4 11.7 32.4 9.9 30.6 9.9 30.6 8.1 32.4 8.1 32.4 6.3 30.6 6.3 30.6 4.5 34.2 4.5 34.2 35.1z"/>
  </g>
</svg>
