<svg xmlns="http://www.w3.org/2000/svg" width="54" height="54" viewBox="0 0 54 54">
  <g fill="#FF9F00">
    <path d="M4.24341485 18C6.1393726 18 7.8189162 16.794 8.52332307 14.9265 8.90777645 13.9068 9.69195951 13.122 10.6755831 12.7746L13.5 11.7774 9.46875589 10.0674C7.79939649 9.3591 6.04177406 9 4.24341485 9 1.9035959 9 0 11.0187 0 13.5 0 15.9813 1.9035959 18 4.24341485 18zM4.24341485 10.8C5.82451122 10.8 7.37081159 11.1159 8.83818445 11.7387L8.85006601 11.7432C8.00223172 12.3552 7.33601559 13.2255 6.94647011 14.2587 6.50260891 15.4377 5.44090652 16.2 4.24341485 16.2 2.83969322 16.2 1.69736594 14.9886 1.69736594 13.5 1.69736594 12.0114 2.83969322 10.8 4.24341485 10.8zM14.3235 8.73330994C15.3432 9.127235 16.128 9.93073778 16.4754 10.9385946L17.6166 14.25 19.971 6.27758284C20.1564 5.6497376 20.25 5.00102215 20.25 4.34795875 20.25 1.95049429 18.2313 0 15.75 0 13.2687 0 11.25 1.95049429 11.25 4.34795875 11.25 6.29062672 12.456 8.01154879 14.3235 8.73330994zM15.75 1.7391835C17.2386 1.7391835 18.45 2.90965399 18.45 4.34795875 18.45 4.83927809 18.3789 5.32711906 18.2403 5.79843779L17.3403 8.84461768C16.7409 8.08285531 15.9336 7.48196741 14.9913 7.11760847 13.8123 6.66281199 13.05 5.57495271 13.05 4.34795875 13.05 2.90965399 14.2614 1.7391835 15.75 1.7391835zM25.2266769 14.9265C25.9310838 16.794 27.6106274 18 29.5065852 18 31.8464041 18 33.75 15.9813 33.75 13.5 33.75 11.0187 31.8464041 9 29.5065852 9 27.7082259 9 25.9506035 9.3591 24.2812441 10.0674L20.25 11.7774 23.0744169 12.7746C24.0580405 13.1229 24.8422235 13.9068 25.2266769 14.9265zM24.9118156 11.7378C26.3791884 11.1159 27.9254888 10.8 29.5065852 10.8 30.9103068 10.8 32.0526341 12.0114 32.0526341 13.5 32.0526341 14.9886 30.9103068 16.2 29.5065852 16.2 28.3090935 16.2 27.2473911 15.4377 26.8026812 14.2587 26.4131357 13.2255 25.7469196 12.3552 24.8990853 11.7432L24.9118156 11.7378z"/>
    <path d="M54,40.1333333 C54,32.4876 47.7481935,26.2666667 40.0645161,26.2666667 L23.1842903,26.2666667 L22.7157097,20.2 L24.3870968,20.2 L24.3870968,15 L10.4516129,15 L10.4516129,20.2 L12.123871,20.2 L9.64509677,52.2666667 L0,52.2666667 L0,54 L9.51096774,54 L25.3277419,54 L50.516129,54 L50.516129,52.2666667 L46.7962258,52.2666667 C51.0866129,49.8998 54,45.3506667 54,40.1333333 Z M22.7810323,43.665 L12.717871,35.1092667 L13.1829677,29.1015333 L22.2453871,36.7316667 L22.7810323,43.665 Z M21.519,27.337 L22.0572581,34.3041333 L13.3475806,26.9704 L13.8048387,21.0562667 L21.519,27.337 Z M15.5040968,20.2 L20.9668065,20.2 L21.3343548,24.9467333 L15.5040968,20.2 Z M12.1935484,16.7333333 L22.6451613,16.7333333 L22.6451613,18.4666667 L22.5807097,18.4666667 L12.258,18.4666667 L12.1935484,18.4666667 L12.1935484,16.7333333 Z M11.3922581,52.2666667 L11.9252903,45.3758 L20.1097742,52.2666667 L11.3922581,52.2666667 Z M22.8062903,52.2666667 L12.0899032,43.2438 L12.5532581,37.2482 L22.9700323,46.1055333 L23.4464516,52.2666667 L22.8062903,52.2666667 Z M25.1936129,52.2666667 L23.3175484,28 L33.3328065,28 C29.0424194,30.3668667 26.1290323,34.916 26.1290323,40.1333333 C26.1290323,45.3506667 29.0424194,49.8998 33.3328065,52.2666667 L25.1936129,52.2666667 Z M27.8709677,40.1333333 C27.8709677,33.4426667 33.3406452,28 40.0645161,28 C46.7883871,28 52.2580645,33.4426667 52.2580645,40.1333333 C52.2580645,46.824 46.7883871,52.2666667 40.0645161,52.2666667 C33.3406452,52.2666667 27.8709677,46.824 27.8709677,40.1333333 Z"/>
    <path d="M40.5,36 C38.0187,36 36,38.0187 36,40.5 C36,42.9813 38.0187,45 40.5,45 C42.9813,45 45,42.9813 45,40.5 C45,38.0187 42.9813,36 40.5,36 Z M40.5,43.2 C39.0114,43.2 37.8,41.9886 37.8,40.5 C37.8,39.0114 39.0114,37.8 40.5,37.8 C41.9886,37.8 43.2,39.0114 43.2,40.5 C43.2,41.9886 41.9886,43.2 40.5,43.2 Z"/>
    <path d="M47.50425,43.791625 C47.74225,43.336625 47.939125,42.86325 48.09225,42.375 L50.25,42.375 L50.25,37.125 L48.09225,37.125 C47.93825,36.63675 47.74225,36.163375 47.50425,35.708375 L49.031125,34.1815 L45.3185,30.468875 L43.791625,31.99575 C43.336625,31.75775 42.86325,31.560875 42.375,31.40775 L42.375,29.25 L37.125,29.25 L37.125,31.40775 C36.63675,31.56175 36.163375,31.75775 35.708375,31.99575 L34.1815,30.468875 L30.468875,34.1815 L31.99575,35.708375 C31.75775,36.163375 31.560875,36.63675 31.40775,37.125 L29.25,37.125 L29.25,42.375 L31.40775,42.375 C31.56175,42.86325 31.75775,43.336625 31.99575,43.791625 L30.468875,45.3185 L34.1815,49.031125 L35.708375,47.50425 C36.163375,47.74225 36.63675,47.939125 37.125,48.09225 L37.125,50.25 L42.375,50.25 L42.375,48.09225 C42.86325,47.93825 43.336625,47.74225 43.791625,47.50425 L45.3185,49.031125 L49.031125,45.3185 L47.50425,43.791625 Z M46.56975,41.30575 C46.395625,42.071375 46.09375,42.799375 45.671125,43.469625 L45.29925,44.061125 L46.556625,45.3185 L45.3185,46.556625 L44.061125,45.29925 L43.469625,45.671125 C42.799375,46.09375 42.071375,46.395625 41.30575,46.56975 L40.625,46.724625 L40.625,48.5 L38.875,48.5 L38.875,46.724625 L38.19425,46.56975 C37.428625,46.395625 36.700625,46.09375 36.030375,45.671125 L35.438875,45.29925 L34.1815,46.556625 L32.943375,45.3185 L34.20075,44.061125 L33.828875,43.469625 C33.40625,42.799375 33.104375,42.071375 32.93025,41.30575 L32.775375,40.625 L31,40.625 L31,38.875 L32.775375,38.875 L32.93025,38.19425 C33.104375,37.428625 33.40625,36.700625 33.828875,36.030375 L34.20075,35.438875 L32.943375,34.1815 L34.1815,32.943375 L35.438875,34.20075 L36.030375,33.828875 C36.700625,33.40625 37.428625,33.104375 38.19425,32.93025 L38.875,32.775375 L38.875,31 L40.625,31 L40.625,32.775375 L41.30575,32.93025 C42.071375,33.104375 42.799375,33.40625 43.469625,33.828875 L44.061125,34.20075 L45.3185,32.943375 L46.556625,34.1815 L45.29925,35.438875 L45.671125,36.030375 C46.09375,36.700625 46.395625,37.428625 46.56975,38.19425 L46.724625,38.875 L48.5,38.875 L48.5,40.625 L46.724625,40.625 L46.56975,41.30575 Z"/>
    <rect width="1.5" height="1.5" x="52.5" y="52.5"/>
  </g>
</svg>
