<svg xmlns="http://www.w3.org/2000/svg" width="54" height="55" viewBox="0 0 54 55">
  <g fill="#FF9F00">
    <path d="M31.9538941,46.1036589 L28.5701,35.9249642 L30.6975706,34.5022038 L29.6995313,33 L27.4991652,34.4715097 L25.2987991,33 L24.3007598,34.5022038 L26.4282304,35.9249642 L23.0462362,46.1036589 C22.9238436,46.4728904 23.0498359,46.8782327 23.360317,47.1111465 L26.960098,49.8194467 C27.1202883,49.9395146 27.3101767,50 27.5000651,50 C27.6899536,50 27.879842,49.9395146 28.0400323,49.8194467 L31.6398132,47.1111465 C31.9493944,46.8782327 32.0762867,46.4719877 31.9538941,46.1036589 Z M27.4991652,47.9696777 L24.9586198,46.0576178 L27.4991652,38.4111837 L30.0397106,46.0576178 L27.4991652,47.9696777 Z"/>
    <path d="M50.4963,31.5280926 C51.003,30.6996296 51.3,29.7277963 51.3,28.6851852 L51.3,22.3333333 C51.3,21.8324444 50.8968,21.4259259 50.4,21.4259259 L41.4,21.4259259 C40.9032,21.4259259 40.5,21.8324444 40.5,22.3333333 L40.5,28.6851852 C40.5,29.7277963 40.797,30.6996296 41.3037,31.5280926 C39.9897,31.8302593 38.9052,32.7158889 38.3067,33.8973333 C37.0134,32.1777963 35.2179,30.8620556 33.1236,30.1606296 C35.4195,28.3312963 36.9,25.506537 36.9,22.3333333 L36.9,21.3161296 C38.7,20.9014444 40.05,19.2817222 40.05,17.3425926 C40.05,15.403463 38.7,13.7837407 36.9,13.3690556 L36.9,12.3518519 C36.9,8.84925926 34.074,6 30.6,6 L13.5,6 C13.0032,6 12.6,6.40651852 12.6,6.90740741 L12.6,8.72222222 C12.6,11.4145 14.5503,13.6503519 17.1,14.085 L17.1,22.3333333 C17.1,25.506537 18.5805,28.3312963 20.8764,30.161537 C18.7821,30.862963 16.9866,32.1787037 15.6933,33.8982407 C15.0948,32.7167963 14.0103,31.8311667 12.6963,31.529 C13.203,30.6996296 13.5,29.7277963 13.5,28.6851852 L13.5,22.3333333 C13.5,21.8324444 13.0968,21.4259259 12.6,21.4259259 L3.6,21.4259259 C3.1032,21.4259259 2.7,21.8324444 2.7,22.3333333 L2.7,28.6851852 C2.7,29.7277963 2.997,30.6996296 3.5037,31.5280926 C1.5021,31.9881481 0,33.7893519 0,35.9444444 L0,54.0925926 C0,54.5934815 0.4032,55 0.9,55 L14.4,55 L39.6,55 L53.1,55 C53.5968,55 54,54.5934815 54,54.0925926 L54,35.9444444 C54,33.7893519 52.4979,31.9881481 50.4963,31.5280926 Z M36.9,15.2637222 C37.6938,15.6139815 38.25,16.4143148 38.25,17.3425926 C38.25,18.2708704 37.6938,19.0712037 36.9,19.421463 L36.9,15.2637222 Z M4.5,23.2407407 L11.7,23.2407407 L11.7,26.4947037 L9.5274,28.6851852 L7.2,28.6851852 L7.2,30.5 L9.9,30.5 C10.1385,30.5 10.368,30.4047222 10.5363,30.2341296 L11.6577,29.1035 C11.5407,30.1179815 11.016,31.0008889 10.2438,31.5843519 C10.242,31.5861667 10.2393,31.5861667 10.2375,31.5879815 C10.0899,31.6986852 9.9351,31.7930556 9.7767,31.8783519 C9.7569,31.8892407 9.738,31.9001296 9.7182,31.9101111 C9.5643,31.9890556 9.4059,32.0552963 9.2448,32.1097407 C9.2178,32.1188148 9.1899,32.1269815 9.162,32.1360556 C8.4699,32.3529259 7.7283,32.3529259 7.0362,32.1360556 C7.0083,32.1269815 6.9813,32.1197222 6.9543,32.1106481 C6.7932,32.0552963 6.6348,31.989963 6.4809,31.9110185 C6.4611,31.901037 6.4422,31.8892407 6.4224,31.8792593 C6.264,31.793963 6.1092,31.6995926 5.9616,31.5888889 C5.9598,31.5870741 5.9571,31.5870741 5.9553,31.5852593 C5.0778,30.921037 4.5,29.8738889 4.5,28.6851852 L4.5,23.2407407 Z M9.783,44.6110926 L8.1,45.7426296 L6.417,44.6110926 L8.1,37.257463 L9.783,44.6110926 Z M14.4,36.1422593 C14.1183,36.7974074 13.8969,37.4825 13.7466,38.1957222 C13.7394,38.2302037 13.7295,38.2646852 13.7223,38.2991667 C13.662,38.5995185 13.6161,38.9044074 13.581,39.2120185 C13.5738,39.2728148 13.5612,39.3336111 13.5558,39.3944074 C13.5198,39.7528333 13.5,40.1148889 13.5,40.4814815 L13.5,53.1851852 L1.8,53.1851852 L1.8,35.9444444 C1.8,34.4435926 3.0114,33.2222222 4.5,33.2222222 L5.121,33.2222222 C5.6817,33.5978889 6.3144,33.8710185 6.9948,34.0143889 L4.5225,44.8143519 C4.4388,45.1827593 4.5891,45.5647778 4.9005,45.7734815 L7.6005,47.5882963 C7.7517,47.6899259 7.9263,47.7407407 8.1,47.7407407 C8.2737,47.7407407 8.4483,47.6899259 8.5995,47.5882963 L11.2995,45.7734815 C11.6109,45.5647778 11.7612,45.1827593 11.6775,44.8143519 L9.2052,34.0143889 C9.8856,33.8710185 10.5183,33.5978889 11.079,33.2222222 L11.7,33.2222222 C13.1886,33.2222222 14.4,34.4435926 14.4,35.9444444 L14.4,36.1422593 Z M14.4,8.72222222 L14.4,7.81481481 L30.6,7.81481481 C33.0813,7.81481481 35.1,9.85012963 35.1,12.3518519 L35.1,14.1666667 L35.1,19.519463 C33.0489,19.0984259 31.5,17.2645556 31.5,15.0740741 L31.5,13.2592593 C31.5,12.7583704 31.0968,12.3518519 30.6,12.3518519 L18,12.3518519 C16.0146,12.3518519 14.4,10.723963 14.4,8.72222222 Z M18.9,22.3333333 L18.9,14.1666667 L29.7,14.1666667 L29.7,15.0740741 C29.7,17.9151667 31.5594,20.3252407 34.1154,21.1355556 L31.1274,24.1481481 L24.3,24.1481481 L24.3,25.962963 L31.5,25.962963 C31.7385,25.962963 31.968,25.8676852 32.1363,25.6970926 L35.0802,22.728963 C34.9308,25.8459074 33.0462,28.5055185 30.3759,29.7468519 C30.1131,29.8684444 29.8467,29.9773333 29.5758,30.0689815 C29.5749,30.0689815 29.5749,30.0698889 29.574,30.0698889 C27.9018,30.6388333 26.0991,30.6388333 24.4269,30.0698889 C24.426,30.0698889 24.426,30.0689815 24.4251,30.0689815 C24.1542,29.9764259 23.8878,29.8684444 23.625,29.7468519 C20.8413,28.4537963 18.9,25.6208704 18.9,22.3333333 Z M38.7,53.1851852 L15.3,53.1851852 L15.3,40.4814815 C15.3,40.1711481 15.318,39.8626296 15.3495,39.5568333 C15.3558,39.4942222 15.3675,39.4325185 15.3747,39.3708148 C15.4062,39.1158333 15.4449,38.8617593 15.498,38.6104074 C15.507,38.5695741 15.5169,38.5287407 15.5259,38.4879074 C15.6627,37.8853889 15.858,37.2946667 16.1181,36.7193704 C16.1226,36.7102963 16.1208,36.6994074 16.1244,36.6903333 C17.3754,33.9427037 19.9449,31.921 23.0769,31.4936111 C24.2811,32.0199074 25.6068,32.3148148 27,32.3148148 C28.3932,32.3148148 29.7189,32.0199074 30.9222,31.4936111 C34.0542,31.921 36.6237,33.9427037 37.8747,36.6903333 C37.8783,36.6994074 37.8765,36.7102963 37.881,36.7193704 C38.142,37.2937593 38.3373,37.8853889 38.4732,38.4879074 C38.4822,38.5287407 38.493,38.5686667 38.5011,38.6104074 C38.5542,38.8617593 38.5929,39.1158333 38.6244,39.3708148 C38.6316,39.4334259 38.6433,39.4942222 38.6496,39.5568333 C38.682,39.8626296 38.7,40.1711481 38.7,40.4814815 L38.7,53.1851852 Z M42.3,23.2407407 L49.5,23.2407407 L49.5,26.4947037 L47.3274,28.6851852 L45,28.6851852 L45,30.5 L47.7,30.5 C47.9385,30.5 48.168,30.4047222 48.3363,30.2341296 L49.4577,29.1035 C49.3407,30.1179815 48.816,31.0008889 48.0438,31.5843519 C48.042,31.5861667 48.0393,31.5861667 48.0375,31.5879815 C47.8899,31.6986852 47.7351,31.7930556 47.5767,31.8783519 C47.5569,31.8892407 47.538,31.9001296 47.5182,31.9101111 C47.3643,31.9890556 47.2059,32.0552963 47.0448,32.1097407 C47.0178,32.1188148 46.9899,32.1269815 46.962,32.1360556 C46.2699,32.3529259 45.5283,32.3529259 44.8362,32.1360556 C44.8083,32.1269815 44.7813,32.1197222 44.7543,32.1106481 C44.5932,32.0552963 44.4348,31.989963 44.2809,31.9110185 C44.2611,31.901037 44.2422,31.8892407 44.2224,31.8792593 C44.064,31.793963 43.9092,31.6995926 43.7616,31.5888889 C43.7598,31.5870741 43.7571,31.5870741 43.7553,31.5852593 C42.8778,30.921037 42.3,29.8738889 42.3,28.6851852 L42.3,23.2407407 Z M47.583,44.6110926 L45.9,45.7426296 L44.217,44.6110926 L45.9,37.257463 L47.583,44.6110926 Z M52.2,53.1851852 L40.5,53.1851852 L40.5,40.4814815 C40.5,40.1148889 40.4802,39.7528333 40.4451,39.3944074 C40.4388,39.3336111 40.4271,39.2728148 40.4199,39.2120185 C40.3848,38.9035 40.3389,38.5986111 40.2786,38.2991667 C40.2714,38.2646852 40.2615,38.2302037 40.2543,38.1957222 C40.104,37.4825 39.8826,36.7974074 39.6009,36.1422593 L39.6009,35.9444444 C39.6009,34.4435926 40.8123,33.2222222 42.3009,33.2222222 L42.9219,33.2222222 C43.4826,33.5978889 44.1153,33.8710185 44.7957,34.0143889 L42.3234,44.8143519 C42.2397,45.1827593 42.39,45.5647778 42.7014,45.7734815 L45.4014,47.5882963 C45.5517,47.6899259 45.7263,47.7407407 45.9,47.7407407 C46.0737,47.7407407 46.2483,47.6899259 46.3995,47.5882963 L49.0995,45.7734815 C49.4109,45.5647778 49.5612,45.1827593 49.4775,44.8143519 L47.0052,34.0143889 C47.6856,33.8710185 48.3183,33.5978889 48.879,33.2222222 L49.5,33.2222222 C50.9886,33.2222222 52.2,34.4435926 52.2,35.9444444 L52.2,53.1851852 Z"/>
    <rect width="2" height="2" x="45" y="17"/>
    <rect width="2" height="2" x="45" y="14"/>
    <rect width="2" height="2" x="48" y="14"/>
    <rect width="2" height="2" x="41" y="14"/>
    <rect width="2" height="2" x="7" y="17"/>
    <rect width="2" height="2" x="7" y="14"/>
    <rect width="2" height="2" x="11" y="14"/>
    <rect width="2" height="2" x="4" y="14"/>
    <rect width="2" height="2" x="41" y="4"/>
    <rect width="2" height="2" x="45" y="4"/>
    <rect width="2" height="2" x="48" y="4"/>
    <path d="M53.0555556,0 L37.9444444,0 C37.4231111,0 37,0.413538462 37,0.923076923 L37,8.30769231 C37,8.81723077 37.4231111,9.23076923 37.9444444,9.23076923 L40.3867778,9.23076923 L39.1656111,10.4243077 C38.87,10.7132308 38.8038889,11.1581538 39.0041111,11.5181538 C39.1712778,11.8190769 39.4923889,12 39.8333333,12 C39.8985,12 39.9655556,11.9935385 40.0307222,11.9796923 L53.2529444,9.21046154 C53.6883333,9.11907692 54,8.74338462 54,8.30769231 L54,0.923076923 C54,0.413538462 53.5768889,0 53.0555556,0 Z M52.1111111,7.56092308 L42.763,9.51876923 L43.3343889,8.96030769 C43.6045,8.69630769 43.6857222,8.29938462 43.5393333,7.95415385 C43.3929444,7.60984615 43.0482222,7.38461538 42.6666667,7.38461538 L38.8888889,7.38461538 L38.8888889,1.84615385 L52.1111111,1.84615385 L52.1111111,7.56092308 Z"/>
  </g>
</svg>
