<svg xmlns="http://www.w3.org/2000/svg" width="54" height="54" viewBox="0 0 54 54">
  <g fill="#FF9F00">
    <path d="M49.452293 0L35.0523281 0C32.2677422 0 30.1932773.886464844 28.1160703 2.96367188 27.7642266 3.31562109 27.7642266 3.88441406 28.1160703 4.23625781 28.4680195 4.58820703 29.0368125 4.58820703 29.3886562 4.23625781 31.1418633 2.48305078 32.7303281 1.79992969 35.0523281 1.79992969L49.452293 1.79992969C50.9408789 1.79992969 52.152293 3.01134375 52.152293 4.49992969L52.152293 18.9C52.152293 21.2229492 51.4691719 22.8104648 49.7151211 24.5636719L22.9869141 51.3297422C21.966293 52.3494141 20.1870352 52.3485703 19.1691562 51.3297422L2.62258594 34.7831719C2.11232813 34.2729141 1.83146484 33.5951719 1.83146484 32.8733437 1.83146484 32.1524648 2.11222266 31.4747227 2.62258594 30.9653086L26.7804141 6.84175781C27.1512422 6.93625781 27.5238633 7.03075781 27.9090352 7.13422266 31.5711211 8.1151875 34.4601211 9.12863672 36.613793 10.0339805 36.1899141 10.8178242 35.952293 11.6972227 35.952293 12.5999297 35.952293 15.5780508 38.3741719 17.9999297 41.352293 17.9999297 44.3304141 17.9999297 46.752293 15.5780508 46.752293 12.5999297 46.752293 9.62180859 44.3304141 7.19992969 41.352293 7.19992969 40.8545859 7.19992969 40.4523281 7.60313672 40.4523281 8.09989453 40.4523281 8.59665234 40.8545859 8.99985937 41.352293 8.99985937 43.3377422 8.99985937 44.9522578 10.6144805 44.9522578 12.5998242 44.9522578 14.5852734 43.3376367 16.1997891 41.352293 16.1997891 39.3669492 16.1997891 37.7523281 14.585168 37.7523281 12.5998242 37.7523281 11.9518242 37.9296211 11.3191172 38.2563633 10.7683594 39.8151914 11.5144453 40.7898281 12.1435664 41.1751055 12.5449805 41.0103633 12.5918086 40.7556563 12.6440156 40.3714336 12.6772383 39.8764688 12.7213242 39.5101758 13.1578594 39.5542617 13.6528242 39.5957109 14.1207891 39.9880547 14.4745313 40.4497969 14.4745313 40.4758477 14.4745313 40.5028477 14.4727383 40.5298477 14.4709453 41.0833477 14.4214805 42.7672617 14.2729805 43.0912617 13.0659961 43.9777266 9.75491016 30.9880898 6.09546094 28.3753125 5.39525391 24.3783633 4.32421875 20.5389844 3.59163281 17.5653984 3.33249609 13.9086914 3.01208203 12.1294336 3.42878906 11.7955195 4.67975391 11.6344688 5.28008203 11.2078477 6.87392578 18.5040703 9.75121875 18.9684492 9.93304688 19.4895703 9.70713281 19.6722422 9.24359766 19.8540703 8.78185547 19.627207 8.25894141 19.1655703 8.07721875 15.6402773 6.68671875 14.1795352 5.66789063 13.7097773 5.18821875 14.8213125 4.86242578 18.6166055 4.95692578 24.7275703 6.34647656L1.35 29.6918789C.4995 30.5423789.0315351563 31.6718438.0315351563 32.8733438.0315351563 34.075793.4995 35.2061016 1.35 36.0557578L17.8964648 52.6022227C18.7460156 53.4517734 19.8755859 53.9198437 21.0779297 53.9198437 22.2794297 53.9198437 23.4088945 53.4518789 24.2603437 52.6013789L50.9885508 25.8362578C53.0666016 23.7590508 53.9522227 21.6845859 53.9522227 18.9L53.9522227 4.50003516C53.9523281 2.01867187 51.9335508 0 49.452293 0zM46.7298281 32.9175352C46.2996211 32.6646211 45.7488633 32.8095352 45.4977422 33.238793L35.1819492 50.8346719C34.436707 52.1243438 32.7834844 52.569 31.5333633 51.8471719L29.5228125 50.5448438C29.1061055 50.2738945 28.5480703 50.3936016 28.2790195 50.8103086 28.0080703 51.2270156 28.1277773 51.7850508 28.5444844 52.0550508L30.5937422 53.3816367C31.3002773 53.7902227 32.0724141 53.9837578 32.8365352 53.9837578 34.3926211 53.9837578 35.9064141 53.178293 36.7370859 51.7400156L47.0501367 34.1485664C47.3012578 33.7202578 47.1582422 33.1686563 46.7298281 32.9175352z"/>
    <path d="M21.5523281 26.1000352L21.5523281 38.7000703C21.5523281 39.1968281 21.9545859 39.6000352 22.452293 39.6000352 22.95 39.6000352 23.3522578 39.1968281 23.3522578 38.7000703L23.3522578 26.1000352C23.3522578 25.6032773 22.95 25.2000703 22.452293 25.2000703 21.9545859 25.2000703 21.5523281 25.6031719 21.5523281 26.1000352zM26.9523281 28.8000352C26.9523281 29.792707 27.7595859 30.6000703 28.7523633 30.6000703 29.7451406 30.6000703 30.5523984 29.7928125 30.5523984 28.8000352 30.5523984 27.8073633 29.7451406 27 28.7523633 27 27.7595859 27 26.9523281 27.8072578 26.9523281 28.8000352zM14.352293 34.2000352C14.352293 35.192707 15.1595508 36.0000703 16.1523281 36.0000703 17.145 36.0000703 17.9523633 35.1928125 17.9523633 34.2000352 17.9523633 33.2072578 17.145 32.4 16.1523281 32.4 15.1595508 32.4 14.352293 33.2072578 14.352293 34.2000352z"/>
  </g>
</svg>
