<svg xmlns="http://www.w3.org/2000/svg" width="32" height="32" viewBox="0 0 32 32">
  <g fill="#D4D4D4">
    <path d="M31.9608961,15.9804481 C31.9608961,7.16904277 24.7918534,0 15.9804481,0 C7.16904277,0 0,7.16904277 0,15.9804481 C0,24.7918534 7.16904277,31.9608961 15.9804481,31.9608961 C24.7918534,31.9608961 31.9608961,24.7918534 31.9608961,15.9804481 Z M1.59674134,15.9804481 C1.59674134,8.04887984 8.04887984,1.59674134 15.9804481,1.59674134 C23.9120163,1.59674134 30.3641548,8.04887984 30.3641548,15.9804481 C30.3641548,23.9120163 23.9120163,30.3641548 15.9804481,30.3641548 C8.04887984,30.3641548 1.59674134,23.9120163 1.59674134,15.9804481 Z"/>
    <path d="M16.5474542,23.488391 L21.0378819,18.9979633 C21.3507128,18.6851324 21.3507128,18.1832994 21.0378819,17.8704684 C20.7250509,17.5576375 20.2232179,17.5576375 19.910387,17.8704684 L16.7820774,20.998778 L16.7820774,9.0395112 C16.7820774,8.59633401 16.4236253,8.23788187 15.9804481,8.23788187 C15.5372709,8.23788187 15.1788187,8.59633401 15.1788187,9.0395112 L15.1788187,20.9922607 L12.0505092,17.8639511 C11.7376782,17.5511202 11.2358452,17.5511202 10.9230143,17.8639511 C10.6101833,18.1767821 10.6101833,18.6786151 10.9230143,18.991446 L15.413442,23.4818737 C15.5698574,23.6382892 15.7718941,23.7164969 15.9804481,23.7164969 C16.189002,23.7164969 16.3910387,23.6448065 16.5474542,23.488391 Z"/>
  </g>
</svg>
