<svg xmlns="http://www.w3.org/2000/svg" width="54" height="56" viewBox="0 0 54 56">
  <g fill="#FF9F00">
    <circle cx="16.908" cy="19.312" r="1.204"/>
    <circle cx="25.088" cy="19.312" r="1.204"/>
    <path d="M53.9146627,42.3789398 C53.9146627,40.9670241 52.7658072,39.8181687 51.3537831,39.8181687 L45.3009036,39.8181687 C46.014506,38.4380241 46.4006386,36.9211446 46.4281807,35.3599157 C46.4333855,35.0642169 46.4311084,34.7610361 46.4286145,34.4400723 C46.4270964,34.240988 46.4254699,34.0306265 46.4254699,33.803241 C46.4253614,32.4729759 45.3461205,31.3902651 44.0178072,31.3860361 C43.7648313,31.3826747 42.939759,31.4269157 42.2894819,32.1061446 C41.736253,32.6838795 41.6463614,33.3623494 41.6420241,33.7155181 C41.6419157,33.7214819 41.6408313,33.7342771 41.6342169,33.7544458 C41.2910241,34.7930241 40.8436265,35.7761928 40.304494,36.6769518 C40.0717952,37.0657952 40.1983373,37.5697952 40.5871807,37.802494 C40.976241,38.0353012 41.4799157,37.9086506 41.7127229,37.5198072 C42.3135542,36.5158193 42.8114819,35.4223735 43.1924096,34.269506 C43.2504217,34.0940602 43.2808916,33.914494 43.2830602,33.7356867 C43.2844699,33.6244337 43.3111446,33.4122289 43.474988,33.2413373 C43.6699518,33.0376988 43.9342048,33.0270723 43.9867952,33.0270723 C43.9993735,33.0271807 44.0028434,33.0272892 44.01,33.0272892 C44.437012,33.0272892 44.7843253,33.3753614 44.7843253,33.8033494 C44.7843253,34.0351807 44.7859518,34.2497711 44.7875783,34.4526506 C44.7900723,34.7765422 44.7921325,35.0560843 44.787253,35.3311807 C44.7567831,37.0639518 44.1975904,38.7333976 43.1700723,40.1589759 C42.9899639,40.4089157 42.9650241,40.7386627 43.1053373,41.0127831 C43.245759,41.287012 43.5277952,41.4594217 43.8358554,41.4594217 L51.3538916,41.4594217 C51.8610361,41.4594217 52.2736265,41.8719036 52.2736265,42.3790482 L52.2736265,42.4355422 C52.2736265,42.9426867 51.8610361,43.3552771 51.3538916,43.3552771 L49.8473133,43.3552771 C49.3941687,43.3552771 49.0266867,43.7226506 49.0266867,44.1759036 C49.0266867,44.6291566 49.3940602,44.9965301 49.8473133,44.9965301 L51.3538916,44.9965301 C51.8610361,44.9965301 52.2736265,45.4091205 52.2736265,45.9162651 L52.2736265,45.9280843 C52.2736265,46.4352289 51.8610361,46.8477108 51.3538916,46.8477108 L49.8473133,46.8477108 C49.3941687,46.8477108 49.0266867,47.2150843 49.0266867,47.6683373 C49.0266867,48.1215904 49.3940602,48.4889639 49.8473133,48.4889639 L51.3538916,48.4889639 C51.8610361,48.4889639 52.2736265,48.9015542 52.2736265,49.4086988 L52.2736265,49.4769036 C52.2736265,49.9840482 51.8610361,50.3965301 51.3538916,50.3965301 L49.8473133,50.3965301 C49.3941687,50.3965301 49.0266867,50.7639036 49.0266867,51.2171566 C49.0266867,51.6704096 49.3940602,52.0377831 49.8473133,52.0377831 L51.3538916,52.0377831 C51.8610361,52.0377831 52.2736265,52.4503735 52.2736265,52.9575181 C52.2736265,53.4646627 51.8610361,53.877253 51.3538916,53.877253 L40.0335181,53.877253 C38.8917108,53.877253 37.8101928,53.4408072 36.9882651,52.6483735 L36.5598434,52.2353494 L36.5598434,42.6037229 C37.2269277,42.2219277 37.8624578,41.787759 38.452988,41.3072892 C38.8372771,40.9946747 39.2094217,40.6573373 39.5591205,40.304494 C39.8781325,39.9826627 39.8759639,39.4630482 39.5541325,39.1440361 C39.2324096,38.8249157 38.7127952,38.8271928 38.3936747,39.1490241 C38.0848554,39.4605542 37.7564096,39.7583133 37.4173373,40.0341687 C37.0798916,40.3086145 36.7256386,40.5659277 36.3580482,40.8050241 C36.056494,40.2199157 35.4473133,39.8180602 34.7448795,39.8180602 L32.7292048,39.8180602 C32.7270361,39.8175181 32.7250843,39.816759 32.7229157,39.8162169 L30.0540361,39.1916386 C28.4048675,38.8058313 27.2531928,37.3534699 27.2531928,35.6596265 L27.2531928,33.9387831 C28.4869518,33.1898313 29.5711807,32.2183735 30.4509036,31.0811205 L30.5156386,31.0811205 C33.003,31.0811205 35.0266988,29.0574217 35.0266988,26.5700602 C35.0266988,26.5418675 35.0252892,26.514 35.0224699,26.4865663 C36.2503735,26.1901084 37.1655542,25.0827831 37.1655542,23.7652048 L37.1655542,17.8813735 C37.1655542,16.337494 35.9095663,15.0813976 34.3656867,15.0813976 L32.8877349,15.0813976 L32.8877349,15.0765181 C32.8877349,14.6232651 32.5203614,14.2558916 32.0671084,14.2558916 C31.9150843,14.2558916 31.7731446,14.2979639 31.6510482,14.3700723 C31.6404217,14.3757108 31.6290361,14.3824337 31.6168916,14.3904578 C30.2796867,15.2679036 27.2653373,15.7531446 25.6930482,15.7531446 C21.7766386,15.7531446 18.006506,14.3547831 14.810747,11.8001928 L10.950506,7.63893976 C11.3222169,7.06131325 11.7200602,6.52283133 12.1390482,6.03422892 C12.4340964,5.69016867 12.3944096,5.17218072 12.0503494,4.8770241 C11.7062892,4.58208434 11.1881928,4.62166265 10.893253,4.96572289 C10.2892771,5.67 9.72542169,6.46221687 9.2173012,7.32057831 L9.2173012,7.32068675 C8.36707229,8.68673494 7.77068675,10.1754217 7.44484337,11.7458675 C7.20737349,12.8902771 7.12160241,14.0563735 7.1833012,15.2224699 C6.06708434,15.5910361 5.25903614,16.6432771 5.25903614,17.8813735 L5.25903614,17.9248554 C3.05186747,16.256494 1.72680723,13.6448675 1.72680723,10.8221205 C1.72680723,5.91148193 5.72183133,1.91656627 10.6324699,1.91656627 C11.684494,1.91656627 12.725241,2.10318072 13.7034217,2.46166265 C13.5016265,2.59763855 13.2999398,2.73881928 13.0991205,2.89019277 C12.7371687,3.16301205 12.6648434,3.67742169 12.9375542,4.03948193 C13.2102651,4.4013253 13.7245663,4.47375904 14.0867349,4.20104819 C17.6866265,1.48836145 21.6562771,1.64233735 21.6943373,1.64407229 C24.4772892,1.78774699 27.1094096,3.04189157 29.5173976,5.37137349 C31.6539759,7.43812048 33.2468675,10.3732048 34.2516145,14.0953012 C34.3503976,14.4611566 34.6815542,14.7022048 35.0433976,14.7022048 C35.1140964,14.7022048 35.1860964,14.6928795 35.2577711,14.6736867 C35.6953012,14.555494 35.954241,14.1050602 35.8361566,13.6675301 C34.7531205,9.65548193 33.0111325,6.46731325 30.6586627,4.19183133 C27.957253,1.57857831 24.9697952,0.170024096 21.7791325,0.00509638554 C21.6297108,-0.00227710843 18.732253,-0.126325301 15.4676386,1.44824096 C13.9799277,0.68053012 12.3181807,0.275638554 10.6324699,0.275638554 C4.81684337,0.275638554 0.0855542169,5.00692771 0.0855542169,10.8224458 C0.0855542169,14.5687229 2.05590361,18.000759 5.25892771,19.8981325 L5.25892771,23.7655301 C5.25892771,25.3094096 6.51491566,26.565506 8.05879518,26.565506 L9.83201205,26.565506 C10.5842169,29.8411807 12.7186265,32.5949639 15.5857229,34.1786386 L15.5857229,35.6600602 C15.5857229,37.3537952 14.4339398,38.8061566 12.7847711,39.1920723 L8.30483133,40.2403012 C4.24062651,41.1911566 1.40215663,44.7705542 1.40215663,48.944494 L1.40215663,54.6977711 C1.40215663,55.1510241 1.76953012,55.5183976 2.22278313,55.5183976 L26.3321566,55.5183976 L34.7447711,55.5183976 C35.5239759,55.5183976 36.1880241,55.0239398 36.4447952,54.333 C37.4783855,55.1011446 38.7267831,55.5183976 40.0335181,55.5183976 L51.3537831,55.5183976 C52.7659157,55.5183976 53.9146627,54.3695422 53.9146627,52.9575181 C53.9146627,52.2862048 53.6549639,51.6744217 53.2308795,51.2171566 C53.6549639,50.7601084 53.9146627,50.1482169 53.9146627,49.4769036 L53.9146627,49.4086988 C53.9146627,48.7373855 53.6549639,48.1256024 53.2308795,47.6683373 C53.6549639,47.2112892 53.9146627,46.5993976 53.9146627,45.9280843 L53.9146627,45.9162651 C53.9146627,45.2449518 53.6549639,44.6331687 53.2308795,44.1759036 C53.6549639,43.718747 53.9146627,43.1068554 53.9146627,42.4355422 L53.9146627,42.3789398 Z M32.8876265,23.9510602 L32.8876265,16.7228675 L34.3655783,16.7228675 C35.0044699,16.7228675 35.5243012,17.2426988 35.5243012,17.8815904 L35.5243012,23.7654217 C35.5243012,24.4044217 35.0044699,24.9241446 34.3655783,24.9241446 L32.8876265,24.9241446 L32.8876265,23.9510602 Z M32.5923614,26.5653976 L33.3856627,26.5653976 C33.3856627,26.5670241 33.3854458,26.5686506 33.3854458,26.5702771 C33.3854458,27.7568675 32.6615422,28.7775542 31.6322892,29.214 C32.0536627,28.3830723 32.3788554,27.4953253 32.5923614,26.5653976 Z M9.53674699,23.9510602 L9.53674699,24.924253 L8.05879518,24.924253 C7.41990361,24.924253 6.90007229,24.4044217 6.90007229,23.7655301 L6.90007229,17.8816988 C6.90007229,17.2426988 7.41990361,16.7229759 8.05879518,16.7229759 L9.53674699,16.7229759 L9.53674699,23.9510602 Z M10.2026386,14.2711807 C10.0720843,14.2961205 9.95280723,14.3520723 9.85218072,14.431012 C9.51137349,14.5797831 9.16308434,14.7145663 8.80742169,14.8326506 C8.78193976,13.9086867 8.8636988,12.9863494 9.05193976,12.0795181 C9.25590361,11.0965663 9.58185542,10.1502651 10.0218795,9.25275904 C10.9387952,10.4294819 11.9386627,11.4899639 13.0054337,12.4281325 C12.001012,13.2831325 11.1158675,13.7990602 10.7358072,14.0031325 C10.5607952,14.0971446 10.3825301,14.1857349 10.2026386,14.2711807 Z M11.1778916,23.9510602 L11.1778916,15.902241 L11.1778916,15.6218313 C11.2901205,15.5654458 11.4019157,15.5083012 11.5124096,15.4488795 C11.9711928,15.2024096 13.0797108,14.5563614 14.2981807,13.4793976 C17.6705783,16.0124096 21.6036867,17.394506 25.6929398,17.394506 C27.0723253,17.394506 29.4644819,17.0716988 31.2463735,16.3894337 L31.2463735,23.9509518 C31.2463735,25.9756265 30.6430482,27.8617229 29.6076145,29.4400843 L22.3350723,29.4400843 C21.8819277,29.4400843 21.5144458,29.8074578 21.5144458,30.2607108 C21.5144458,30.7139639 21.8818193,31.0813373 22.3350723,31.0813373 L28.2648795,31.0813373 C26.4511084,32.8755904 23.9588675,33.9853012 21.2121325,33.9853012 C15.6793012,33.9854096 11.1778916,29.484 11.1778916,23.9510602 Z M25.5115301,40.6387952 L25.5115301,46.2132651 C24.2029518,46.6859277 22.8290964,46.9256747 21.4193494,46.9256747 C19.4369639,46.9256747 17.4718193,46.4343614 15.7364458,45.5049759 C15.3369759,45.2910361 14.8395904,45.4413253 14.6256506,45.8409036 C14.4117108,46.2403735 14.5621084,46.737759 14.9615783,46.9516988 C16.9345301,48.0083855 19.1676145,48.5669277 21.4193494,48.5669277 C22.8216145,48.5669277 24.1930843,48.3572169 25.5115301,47.9443012 L25.5115301,53.8771446 L10.408988,53.8771446 L10.408988,51.8010723 C10.408988,51.3518313 10.0448675,50.9878193 9.59573494,50.9878193 C9.14660241,50.9878193 8.78248193,51.3518313 8.78248193,51.8010723 L8.78248193,53.8771446 L3.04340964,53.8771446 L3.04340964,48.944494 C3.04340964,45.536747 5.36074699,42.6146747 8.67881928,41.8382892 L9.51148193,41.6434337 C10.1721687,42.8019398 10.9950723,43.8558072 11.9658795,44.7817229 C12.1248434,44.9332048 12.3285904,45.0084578 12.5321205,45.0084578 C12.7486627,45.0084578 12.9648795,44.9233373 13.1261205,44.7541807 C13.4388434,44.4262771 13.4265904,43.9068795 13.0985783,43.5940482 C12.3625301,42.8920482 11.7228795,42.1066627 11.1878675,41.2512289 L13.158759,40.7900602 C15.5540602,40.2296747 17.2269759,38.1202048 17.2269759,35.6600602 L17.2269759,34.9259639 C18.4711446,35.3791084 19.8132289,35.6267711 21.212241,35.6267711 C22.7680482,35.6267711 24.2532651,35.3201205 25.6118313,34.7653735 L25.6118313,35.6601687 C25.6118313,37.3350361 26.3877831,38.8468193 27.6385663,39.818494 L26.3321566,39.818494 L26.3321566,39.8181687 C25.879012,39.8181687 25.5115301,40.1855422 25.5115301,40.6387952 Z M34.9185904,42.1080723 C34.9185904,42.1093735 34.9185904,42.1106747 34.9185904,42.1118675 L34.9185904,53.7031084 C34.9185904,53.7989639 34.8406265,53.8769277 34.7447711,53.8769277 L27.1526747,53.8769277 L27.1526747,41.4593133 L34.7447711,41.4593133 C34.8406265,41.4593133 34.9185904,41.5372771 34.9185904,41.6331325 L34.9185904,42.1080723 Z"/>
    <path d="M24.8610361,26.4375542 C24.5434337,26.1200602 24.0284819,26.1200602 23.710988,26.4375542 C23.0254699,27.1230723 22.1140843,27.5006386 21.1446867,27.5006386 C20.1752892,27.5006386 19.2637952,27.1231807 18.5783855,26.4375542 C18.2607831,26.1200602 17.7458313,26.1200602 17.4283373,26.4375542 C17.1107349,26.7552651 17.1107349,27.2701084 17.4283373,27.5877108 C18.4210482,28.5803133 19.7409036,29.1270361 21.1447952,29.1270361 C22.5486867,29.1270361 23.8685422,28.5803133 24.8611446,27.5877108 C25.1786386,27.27 25.1786386,26.7551566 24.8610361,26.4375542 Z"/>
    <circle cx="32.213" cy="43.833" r="1"/>
  </g>
</svg>
