<svg xmlns="http://www.w3.org/2000/svg" width="54" height="54" viewBox="0 0 54 54">
  <g fill="#FF9F00">
    <path d="M51.4419677,44.8121613 C50.2278387,40.9259032 46.8432581,38.015129 42.8193871,37.395871 L38.3225806,36.7043226 L38.3225806,35.802 C41.2533871,34.101 43.416,31.2215806 44.145871,27.810871 C46.2623226,27.5156129 47.9032258,25.7127097 47.9032258,23.516129 L47.9032258,18.1300645 C48.9144194,17.7694839 49.6451613,16.8114194 49.6451613,15.6774194 C49.6451613,14.4606774 48.8064194,13.445129 47.6793871,13.1550968 C46.7126129,7.21945161 42.3647419,2.31764516 36.5806452,0.641903226 L36.5806452,0 L27.8709677,0 L27.8709677,0.641903226 C22.6930645,2.14170968 18.6613548,6.22393548 17.1798387,11.3225806 L0,11.3225806 L0,33.9677419 L0,34.8387097 L0,54 L10.4516129,54 L23.516129,54 L54,54 L54,52.11 L51.4419677,44.8121613 Z M42.6774194,25.2580645 C42.6774194,31.0212581 37.989,35.7096774 32.2258065,35.7096774 C26.4626129,35.7096774 21.7741935,31.0212581 21.7741935,25.2580645 L21.7741935,18.2903226 L42.6774194,18.2903226 L42.6774194,25.2580645 Z M36.5806452,36.6337742 L36.5806452,37.3105161 L35.8272581,39.5698065 C35.424871,39.9164516 34.0870645,40.9354839 32.2258065,40.9354839 C30.3854516,40.9354839 29.0310968,39.9138387 28.6234839,39.5671935 L27.8709677,37.3105161 L27.8709677,36.6337742 C29.2253226,37.1546129 30.6902903,37.4516129 32.2258065,37.4516129 C33.7613226,37.4516129 35.2262903,37.1546129 36.5806452,36.6337742 Z M44.3827742,25.9800968 C44.3967097,25.7397097 44.4193548,25.5019355 44.4193548,25.2580645 L44.4193548,21.0634839 C45.4305484,21.4240645 46.1612903,22.382129 46.1612903,23.516129 C46.1612903,24.6631935 45.413129,25.6299677 44.3827742,25.9800968 Z M46.1612903,20.0549032 C45.6526452,19.6699355 45.0664839,19.3816452 44.4193548,19.250129 L44.4193548,18.2903226 L46.1612903,18.2903226 L46.1612903,20.0549032 Z M29.6129032,1.74193548 L34.8387097,1.74193548 L34.8387097,13.0645161 L29.6129032,13.0645161 L29.6129032,1.74193548 Z M27.8709677,2.4543871 L27.8709677,13.0645161 L18.549,13.0645161 C19.4922581,8.11916129 23.0876129,4.02996774 27.8709677,2.4543871 Z M17.4193548,14.8064516 L40.9354839,14.8064516 L40.9354839,13.0645161 L36.5806452,13.0645161 L36.5806452,2.4543871 C41.364,4.02996774 44.9593548,8.11916129 45.9026129,13.0645161 L42.6774194,13.0645161 L42.6774194,14.8064516 L47.0322581,14.8064516 C47.5121613,14.8064516 47.9032258,15.1966452 47.9032258,15.6774194 C47.9032258,16.1581935 47.5121613,16.5483871 47.0322581,16.5483871 L17.4193548,16.5483871 C16.9394516,16.5483871 16.5483871,16.1581935 16.5483871,15.6774194 C16.5483871,15.1966452 16.9394516,14.8064516 17.4193548,14.8064516 Z M16.5483871,20.0322581 L16.5483871,23.516129 C16.5483871,25.7127097 18.1892903,27.5156129 20.3057419,27.810871 C20.439,28.431871 20.6262581,29.0310968 20.8500968,29.6129032 L5.22580645,29.6129032 L5.22580645,16.5483871 L14.9667097,16.5483871 C15.2297419,17.2860968 15.8106774,17.8670323 16.5483871,18.1300645 L16.5483871,18.2903226 L10.4516129,18.2903226 L10.4516129,20.0322581 L16.5483871,20.0322581 Z M20.0322581,21.0634839 L20.0322581,25.2580645 C20.0322581,25.5019355 20.0549032,25.7397097 20.0688387,25.9800968 C19.0384839,25.6299677 18.2903226,24.6631935 18.2903226,23.516129 C18.2903226,22.382129 19.0210645,21.4240645 20.0322581,21.0634839 Z M18.2903226,20.0540323 L18.2903226,18.2903226 L20.0322581,18.2903226 L20.0322581,19.2492581 C19.385129,19.3816452 18.7989677,19.6690645 18.2903226,20.0540323 Z M1.74193548,13.0645161 L16.7870323,13.0645161 C16.7818065,13.095 16.7774516,13.1254839 16.7730968,13.1550968 C15.93,13.3719677 15.2567419,13.9947097 14.9675806,14.8064516 L3.48387097,14.8064516 L3.48387097,31.3548387 L21.681871,31.3548387 C22.0389677,31.9706129 22.4430968,32.5550323 22.8986129,33.0967742 L1.74193548,33.0967742 L1.74193548,13.0645161 Z M11.3156129,49.6451613 L10.4516129,52.11 L10.4516129,52.2580645 L1.74193548,52.2580645 L1.74193548,34.8387097 L24.7076129,34.8387097 C25.1570323,35.1923226 25.6317097,35.5128387 26.1290323,35.802 L26.1290323,36.7043226 L21.6322258,37.395871 C20.0017742,37.6467097 18.4793226,38.2790323 17.1615484,39.1926774 L10.4516129,39.1926774 L10.4516129,36.5797742 L3.48387097,36.5797742 L3.48387097,43.5475161 L10.4516129,43.5475161 L10.4516129,40.9346129 L15.1949032,40.9346129 C14.2202903,42.039871 13.4677742,43.3445806 13.0183548,44.7825484 L11.9252903,47.9032258 L3.48387097,47.9032258 L3.48387097,49.6451613 L11.3156129,49.6451613 Z M8.70967742,38.3225806 L8.70967742,41.8064516 L5.22580645,41.8064516 L5.22580645,38.3225806 L8.70967742,38.3225806 Z M23.516129,52.2580645 L21.0190645,52.2580645 L21.7672258,46.2692903 L20.0392258,46.0532903 L19.2631935,52.2580645 L12.2458065,52.2580645 L14.6723226,45.3312581 C15.6887419,42.0764516 18.5254839,39.636871 21.897,39.1177742 L23.3506452,38.8939355 L22.6007419,45.6378387 L29.9560645,52.2580645 L23.516129,52.2580645 Z M24.4306452,44.9419355 L25.1335161,38.6195806 L26.406,38.4236129 L30.3558387,50.274 L24.4306452,44.9419355 Z M29.4665806,42.0982258 C30.2304194,42.4230968 31.1606129,42.6774194 32.2258065,42.6774194 C33.291,42.6774194 34.2211935,42.4230968 34.9850323,42.0982258 L32.2258065,50.3741613 L29.4665806,42.0982258 Z M38.0447419,38.4244839 L39.3172258,38.6204516 L40.0200968,44.9428065 L34.0949032,50.274871 L38.0447419,38.4244839 Z M45.1884194,52.2580645 L44.4123871,46.0532903 L42.6843871,46.2692903 L43.4325484,52.2580645 L34.4955484,52.2580645 L41.850871,45.6378387 L41.1009677,38.8939355 L42.5546129,39.1177742 C45.926129,39.636871 48.762,42.0755806 49.788871,45.36 L52.2058065,52.2580645 L45.1884194,52.2580645 Z"/>
    <path d="M32.2258065,32.2258065 C36.0676452,32.2258065 39.1935484,29.0999032 39.1935484,25.2580645 L37.4516129,25.2580645 C37.4516129,28.1400968 35.1078387,30.483871 32.2258065,30.483871 C29.3437742,30.483871 27,28.1400968 27,25.2580645 L25.2580645,25.2580645 C25.2580645,29.0999032 28.3839677,32.2258065 32.2258065,32.2258065 Z"/>
    <rect width="1.742" height="1.742" x="37.452" y="20.032"/>
    <rect width="1.742" height="1.742" x="25.258" y="20.032"/>
    <rect width="1.742" height="1.742" x="6.968" y="18.29"/>
  </g>
</svg>
