<svg xmlns="http://www.w3.org/2000/svg" width="54" height="54" viewBox="0 0 54 54">
  <g fill="#FF9F00">
    <path d="M11.8855898,46.8877148 L7.11217969,42.1143047 L11.4839648,37.7436797 C11.8516289,37.3761211 11.9195508,36.8044805 11.6481797,36.3610898 C10.6772344,34.7741016 9.96025781,33.0450469 9.52308984,31.2366797 C9.40148437,30.7312734 8.94944531,30.3751055 8.42958984,30.3748945 L2.24996484,30.3748945 L2.24996484,23.6248945 L8.42958984,23.6248945 C8.94902344,23.6248945 9.4010625,23.2692539 9.52308984,22.7642695 C9.96057422,20.9556914 10.6775508,19.2263203 11.6481797,17.6388047 C11.9188125,17.195625 11.8509961,16.6247227 11.4839648,16.2572695 L7.11217969,11.8854844 L11.8855898,7.11207422 L16.257375,11.4838594 C16.6249336,11.8515234 17.1965742,11.9194453 17.6399648,11.6480742 C19.2267422,10.6766016 20.9557969,9.95951953 22.764375,9.52298438 C23.2693594,9.40095703 23.625,8.94891797 23.625,8.42948438 L23.625,2.24996484 L30.375,2.24996484 L30.375,8.42958984 C30.375,8.94902344 30.7306406,9.4010625 31.235625,9.52308984 C33.0442031,9.959625 34.7732578,10.676707 36.3600352,11.6481797 C36.8035312,11.9194453 37.3750664,11.8515234 37.742625,11.4839648 L42.1144102,7.11217969 L46.888875,11.8855898 L42.5170898,16.257375 L44.107875,17.8481602 L49.275,12.6810352 C49.7141719,12.2417578 49.7141719,11.5296328 49.275,11.09025 L42.90975,4.725 C42.4704727,4.28582813 41.7583477,4.28582813 41.3189648,4.725 L36.763875,9.28125 C35.4528984,8.55583594 34.0645078,7.97997656 32.6249648,7.56453516 L32.6249648,1.12503516 C32.6249648,0.50371875 32.1213516,0 31.5000352,0 L22.5000703,0 C21.8787539,0 21.3750352,0.50371875 21.3750352,1.12503516 L21.3750352,7.56453516 C19.9354922,7.98008203 18.547207,8.55583594 17.236125,9.28125 L12.6810352,4.725 C12.2417578,4.28582813 11.5296328,4.28582813 11.09025,4.725 L4.725,11.09025 C4.28582813,11.5295273 4.28582813,12.2416523 4.725,12.6810352 L9.28125,17.236125 C8.55604687,18.547207 7.9801875,19.9354922 7.56453516,21.3750352 L1.12503516,21.3750352 C0.50371875,21.3750352 0,21.8786484 0,22.4999648 L0,31.4999297 C0,32.1212461 0.50371875,32.6249648 1.12503516,32.6249648 L7.56453516,32.6249648 C7.98008203,34.0648242 8.55594141,35.4535313 9.28125,36.7649297 L4.725,41.3189648 C4.28582813,41.7582422 4.28582813,42.4703672 4.725,42.90975 L11.09025,49.2738398 C11.3011875,49.4848828 11.5873242,49.6034297 11.8855898,49.6034297 C12.18375,49.6036406 12.4698867,49.4855156 12.6809297,49.2748945 L17.8480547,44.1066094 L16.2572695,42.5158242 L11.8855898,46.8877148 Z"/>
    <path d="M27 18.0000352L27 15.7500703C20.7895781 15.7568203 15.7568203 20.7895781 15.7499648 27L17.9999297 27C18.005625 22.0317891 22.0317891 18.005625 27 18.0000352zM52.8749648 32.6249648L48.6528398 32.6249648C48.589875 32.4685547 48.5245898 32.3133047 48.4559297 32.157L51.4439648 29.170125C51.8831367 28.7308477 51.8831367 28.0187227 51.4439648 27.5793398L46.6705547 22.8059297C46.2312773 22.3667578 45.5191523 22.3667578 45.0797695 22.8059297L42.0928945 25.7939648C41.9364844 25.7253047 41.7812344 25.660125 41.6249297 25.5970547L41.6249297 21.3749297C41.6249297 20.7536133 41.1212109 20.2498945 40.4998945 20.2498945L33.7498945 20.2498945C33.1285781 20.2498945 32.6248594 20.7536133 32.6248594 21.3749297L32.6248594 25.5970547C32.4684492 25.6600195 32.3131992 25.7253047 32.1568945 25.7939648L29.1700195 22.8059297C28.7307422 22.3667578 28.0186172 22.3667578 27.5792344 22.8059297L22.8058242 27.5793398C22.3666523 28.0186172 22.3666523 28.7307422 22.8058242 29.170125L25.7938594 32.157C25.7251992 32.3134102 25.6600195 32.4686602 25.5969492 32.6249648L21.3748242 32.6249648C20.7535078 32.6249648 20.2497891 33.1286836 20.2497891 33.75L20.2497891 40.5C20.2497891 41.1213164 20.7535078 41.6250352 21.3748242 41.6250352L25.5969492 41.6250352C25.6599141 41.7814453 25.7251992 41.9366953 25.7938594 42.093L22.8058242 45.079875C22.3666523 45.5191523 22.3666523 46.2312773 22.8058242 46.6706602L27.5792344 51.4440703C28.0185117 51.8832422 28.7306367 51.8832422 29.1700195 51.4440703L32.1568945 48.4560352C32.3133047 48.52575 32.4685547 48.589875 32.6248594 48.6517852L32.6248594 52.8750703C32.6248594 53.4963867 33.1285781 54.0001055 33.7498945 54.0001055L40.4998945 54.0001055C41.1212109 54.0001055 41.6249297 53.4963867 41.6249297 52.8750703L41.6249297 48.6517852C41.7813398 48.589875 41.9365898 48.52575 42.0928945 48.4560352L45.0797695 51.4440703C45.5190469 51.8832422 46.2311719 51.8832422 46.6705547 51.4440703L51.4439648 46.6706602C51.8831367 46.2313828 51.8831367 45.5192578 51.4439648 45.079875L48.4559297 42.093C48.5245898 41.9365898 48.5897695 41.7813398 48.6528398 41.6250352L52.8749648 41.6250352C53.4962813 41.6250352 54 41.1213164 54 40.5L54 33.75C54 33.1286836 53.4962813 32.6249648 52.8749648 32.6249648zM51.7500352 39.3739102L47.8586602 39.3739102C47.3672813 39.3739102 46.9328555 39.6927422 46.7854102 40.1614453 46.6054805 40.727707 46.375875 41.2769883 46.099125 41.8028555 45.8715234 42.2384414 45.9530508 42.7714805 46.3004648 43.1191055L49.0566797 45.8753203 45.8752148 49.0567852 43.119 46.3005703C42.771375 45.9531562 42.2383359 45.8716289 41.80275 46.0992305 41.2769883 46.3752422 40.7281289 46.6048477 40.1625 46.7855156 39.6937969 46.9329609 39.3749648 47.3673867 39.3749648 47.8587656L39.3749648 51.7501406 34.8749297 51.7501406 34.8749297 47.8609805C34.8749297 47.3696016 34.5560977 46.9351758 34.0873945 46.7877305 33.5217656 46.6070625 32.9729063 46.377457 32.4471445 46.1014453 32.0115586 45.8738437 31.4785195 45.9553711 31.1308945 46.3027852L28.3746797 49.059 25.1932148 45.8775352 27.9494297 43.1213203C28.2968438 42.7736953 28.3783711 42.2406562 28.1507695 41.8050703 27.8740195 41.2793086 27.6444141 40.7300273 27.4644844 40.1636602 27.3170391 39.694957 26.8826133 39.376125 26.3912344 39.376125L22.4998594 39.376125 22.4998594 34.8760898 26.3912344 34.8760898C26.8826133 34.8760898 27.3170391 34.5572578 27.4644844 34.0885547 27.6444141 33.522293 27.8740195 32.9730117 28.1507695 32.4471445 28.3783711 32.0115586 28.2968438 31.4785195 27.9494297 31.1308945L25.1920547 28.3746797 28.3746797 25.1920547 31.1308945 27.9494297C31.4790469 28.2970547 32.0126133 28.3781602 32.4483047 28.1497148 32.9736445 27.8738086 33.522082 27.644625 34.0873945 27.4645898 34.5560977 27.3171445 34.8749297 26.8827188 34.8749297 26.3913398L34.8749297 22.4999648 39.3749648 22.4999648 39.3749648 26.3901797C39.3749648 26.8815586 39.6937969 27.3159844 40.1625 27.4634297 40.7278125 27.6434648 41.2763555 27.8726484 41.8015898 28.1485547 42.2372812 28.377 42.7708477 28.2958945 43.119 27.9482695L45.8752148 25.1908945 49.0578398 28.3735195 46.3004648 31.1297344C45.9530508 31.4773594 45.871418 32.0103984 46.099125 32.4459844 46.375875 32.9717461 46.6054805 33.5210273 46.7854102 34.0873945 46.9328555 34.5560977 47.3672812 34.8749297 47.8586602 34.8749297L51.7500352 34.8749297 51.7500352 39.3739102z"/>
    <path d="M37.125,31.5000352 C34.018418,31.5000352 31.5000352,34.018418 31.5000352,37.125 C31.5000352,40.231582 34.018418,42.7499648 37.125,42.7499648 C40.2301055,42.7462734 42.7462734,40.23 42.7499648,37.125 C42.7499648,34.018418 40.231582,31.5000352 37.125,31.5000352 Z M37.125,40.5 C35.2610508,40.5 33.75,38.9889492 33.75,37.125 C33.75,35.2610508 35.2610508,33.75 37.125,33.75 C38.9889492,33.75 40.5,35.2610508 40.5,37.125 C40.5,38.9889492 38.9889492,40.5 37.125,40.5 Z"/>
  </g>
</svg>
