<svg xmlns="http://www.w3.org/2000/svg" xmlns:xlink="http://www.w3.org/1999/xlink" width="293" height="41" viewBox="0 0 293 41">
  <defs>
    <polygon id="logo_white-a" points="0 0 43.664 0 43.664 40.631 0 40.631"/>
  </defs>
  <g fill="none" fill-rule="evenodd">
    <polygon fill="#FFF" points="69.35 14.1 58.778 14.1 55.872 27.191 61.577 27.191 63.672 17.755 68.538 17.755"/>
    <polygon fill="#FFF" points="68.181 27.191 71.087 14.1 75.744 14.1 74.555 19.456 79.808 14.775 79.958 14.1 84.615 14.1 81.709 27.191 77.052 27.191 78.205 21.994 72.973 26.582 72.838 27.191"/>
    <path fill="#FFF" d="M84.0129872 23.6937191L82.2857342 31.4752779 85.9874214 31.4752779 86.93937 27.1907779 96.9743185 27.1907779 96.0235757 31.4752779 99.7258658 31.4752779 101.453119 23.6937191 99.8000202 23.6937191 101.929395 14.0997191 89.7047835 14.0997191C89.7047835 14.0997191 87.6501663 21.1559397 87.4590531 21.8077191 87.0267877 23.2282485 86.5040901 23.6937191 85.7830449 23.6937191L84.0129872 23.6937191zM95.961479 17.5925574L94.6074091 23.6937191 91.9065037 23.6937191C92.1235407 23.1347926 92.3333432 22.505925 92.5449543 21.7606897L93.7266004 17.5925574 95.961479 17.5925574zM117.996285 21.2952191L118.336912 19.7583221C119.045297 16.5681603 118.113244 13.8434691 114.550822 13.8434691 112.525143 13.8434691 110.923892 14.6586456 110.424707 15.1241162L110.651993 14.0997191 105.249579 14.0997191 101.480972 31.0797485 106.929807 31.0797485 107.850406 26.9309103C108.263982 27.1636456 110.06961 27.2136897 110.767746 27.2136897 114.470036 27.2136897 117.153458 25.0907338 117.996285 21.2952191zM111.903573 22.4130721C111.556916 23.9728809 110.964285 24.4389544 109.986412 24.4389544 109.660857 24.4389544 108.848777 24.3225868 108.636563 24.2297338L109.938785 18.3613074C110.01113 18.0351162 110.634509 17.4297632 111.519538 17.4297632 112.777147 17.4297632 112.854919 18.1285721 112.420242 20.0845132L111.903573 22.4130721zM134.03502 21.0623632L134.231559 20.1778485C135.01229 16.6614956 132.644175 13.7969221 128.336592 13.7969221 123.493652 13.7969221 120.187455 16.9406574 119.468821 20.1778485L119.272885 21.0623632C118.254619 25.6501426 121.557802 27.4469074 125.096712 27.4469074 130.336348 27.4469074 133.306138 24.3459809 134.03502 21.0623632zM127.983907 21.7840838C127.461813 24.1361574 126.585224 24.4159221 125.909395 24.4159221 125.141325 24.4159221 124.478759 24.0433044 124.980356 21.7840838L125.455426 19.6418338C125.905175 17.6159515 126.573166 17.1269662 127.527527 17.1269662 128.389043 17.1269662 128.914152 17.5924368 128.458977 19.6418338L127.983907 21.7840838z"/>
    <polygon fill="#EF7F1A" points="134.242 27.191 137.148 14.1 141.805 14.1 140.616 19.456 145.869 14.775 146.019 14.1 150.676 14.1 147.77 27.191 143.113 27.191 144.267 21.994 139.034 26.582 138.899 27.191"/>
    <polygon fill="#EF7F1A" points="163.643 27.191 166.549 14.1 160.844 14.1 159.816 18.734 156.951 18.734 157.98 14.1 152.276 14.1 149.369 27.191 155.075 27.191 156.176 22.227 159.04 22.227 157.939 27.191"/>
    <path fill="#EF7F1A" d="M168.405126,14.0996588 C167.26749,19.22285 167.552653,20.0380265 169.043577,20.4564676 C166.999208,20.8526 165.855544,22.6457471 164.847527,27.1907176 L170.528472,27.1907176 C171.599791,22.3665853 171.969357,22.0639088 172.784451,22.0639088 L173.529612,22.0639088 L172.391373,27.1907176 L177.933052,27.1907176 L179.070688,22.0639088 L179.816451,22.0639088 C180.630943,22.0639088 180.866669,22.3665853 179.795953,27.1907176 L185.476898,27.1907176 C186.48612,22.6457471 186.139464,20.8526 184.271136,20.4564676 C185.947145,20.0380265 186.594036,19.22285 187.731671,14.0996588 L182.306348,14.0996588 C181.230809,18.9430853 180.94625,19.3856441 180.177577,19.3856441 L179.665731,19.3856441 L180.838937,14.0996588 L175.297258,14.0996588 L174.124052,19.3856441 L173.612206,19.3856441 C172.842931,19.3856441 172.755513,18.9430853 173.830449,14.0996588 L168.405126,14.0996588 Z"/>
    <polygon fill="#EF7F1A" points="186.681 27.191 189.587 14.1 194.244 14.1 193.055 19.456 198.309 14.775 198.458 14.1 203.116 14.1 200.209 27.191 195.552 27.191 196.706 21.994 191.473 26.582 191.338 27.191"/>
    <polygon fill="#EF7F1A" points="216.083 27.191 218.989 14.1 213.284 14.1 212.255 18.734 209.391 18.734 210.419 14.1 204.715 14.1 201.809 27.191 207.514 27.191 208.615 22.227 211.48 22.227 210.378 27.191"/>
    <polygon fill="#EF7F1A" points="217.682 27.191 220.588 14.1 225.245 14.1 224.056 19.456 229.31 14.775 229.46 14.1 234.117 14.1 231.21 27.191 226.554 27.191 227.708 21.994 222.475 26.582 222.34 27.191"/>
    <path fill="#EF7F1A" d="M248.602361,21.2952191 L248.942989,19.7583221 C249.651373,16.5681603 248.71932,13.8434691 245.156898,13.8434691 C243.131219,13.8434691 241.530571,14.6586456 241.03018,15.1241162 L241.257466,14.0997191 L235.855655,14.0997191 L232.086445,31.0797485 L237.535884,31.0797485 L238.456483,26.9309103 C238.870059,27.1636456 240.675686,27.2136897 241.373822,27.2136897 C245.076112,27.2136897 247.759534,25.0907338 248.602361,21.2952191 Z M242.509649,22.4130721 C242.162993,23.9728809 241.570964,24.4389544 240.593092,24.4389544 C240.266933,24.4389544 239.45425,24.3225868 239.242639,24.2297338 L240.544861,18.3613074 C240.617207,18.0351162 241.240585,17.4297632 242.125614,17.4297632 C243.383223,17.4297632 243.460995,18.1285721 243.026921,20.0845132 L242.509649,22.4130721 Z"/>
    <polygon fill="#EF7F1A" points="248.428 27.191 251.333 14.1 255.991 14.1 254.801 19.456 260.055 14.775 260.205 14.1 264.862 14.1 261.956 27.191 257.299 27.191 258.452 21.994 253.22 26.582 253.085 27.191"/>
    <polygon fill="#EF7F1A" points="277.829 27.191 280.735 14.1 275.03 14.1 274.001 18.734 271.137 18.734 272.166 14.1 266.462 14.1 263.555 27.191 269.26 27.191 270.362 22.227 273.226 22.227 272.124 27.191"/>
    <polygon fill="#EF7F1A" points="292.906 14.1 282.334 14.1 279.429 27.191 285.133 27.191 287.228 17.755 292.094 17.755"/>
    <mask id="logo_white-b" fill="#fff">
      <use xlink:href="#logo_white-a"/>
    </mask>
    <path fill="#FFF" d="M27.1956451,0.00265294118 C33.4559578,-0.133611765 37.4168837,4.78457941 37.9974578,9.32894706 C35.5256471,7.28919706 32.6239825,6.22199118 30.1521718,6.09356471 C23.5439969,5.74868235 16.8670936,10.1585941 16.3492191,17.1273882 L18.8463508,17.1750206 C20.0267912,11.1034029 24.0504167,6.78574118 30.8400586,7.11856471 C34.2752726,7.28678529 39.4401512,9.44350588 41.2307068,15.3028882 L42.103678,14.8042559 C45.351999,20.1595794 43.0719043,26.0497118 39.4268879,28.8238441 C39.9574228,25.6638294 39.4317109,22.6165647 38.3073385,20.4104029 C35.3019784,14.5154471 28.1451821,10.9375941 21.851108,13.9728 L23.0592809,16.1602706 C28.9072233,14.14705 34.6568961,15.4723147 37.764143,21.5192118 C39.33525,24.5785353 40.0496636,30.1304176 35.8717006,34.6108735 L36.7392459,35.1179471 C33.7266512,40.6089324 27.4862335,41.5802706 23.2618488,39.8094324 C26.2641944,38.6891676 28.6395442,36.7091088 29.9869825,34.6325794 C33.5891944,29.0819029 33.1093014,21.0947412 27.3337047,17.1617559 L26.0435401,19.3009912 C30.7116451,23.3587853 32.4388981,29.0017118 28.7552973,34.7163882 C26.8923961,37.6074912 22.4413282,41.00205 16.4722068,39.6231235 L16.4679866,40.6282265 C10.207071,40.7644912 6.24554218,35.8450941 5.66617387,31.3007265 C8.13798457,33.3404765 11.0396492,34.4082853 13.5114599,34.5373147 C20.1196348,34.8821971 26.7959352,30.4722853 27.3138097,23.5028882 L24.8160751,23.4552559 C23.6356348,29.5268735 19.6126121,33.8451382 12.823573,33.5123147 C9.38775617,33.3440941 4.22348045,31.1867706 2.4329249,25.3273882 L1.56055658,25.8260206 C-1.68836728,20.4713 0.591124486,14.5811676 4.23614095,11.8064324 C3.70560597,14.9664471 4.23192078,18.0149176 5.35629321,20.2198735 C8.36165329,26.1160353 15.5184496,29.6938882 21.8131265,26.6568735 L20.6049537,24.4700059 C14.7564084,26.4838294 9.0067356,25.1591676 5.89948868,19.1116676 C4.32777881,16.0523441 3.61336523,10.5004618 7.79193107,6.02000588 L6.92378292,5.51293235 C9.93637757,0.0219470588 16.1767953,-0.949391176 20.4017829,0.820241176 C17.400643,1.94110882 15.0246903,3.92177059 13.6766492,5.99769706 C10.0738344,11.5489765 10.5543302,19.5367412 16.3311327,23.4697265 L17.6206944,21.3310941 C12.9519866,17.2726971 11.2247335,11.6291676 14.9083344,5.91449118 C16.7712356,3.02338824 21.2217006,-0.371170588 27.190822,1.00775588 L27.1956451,0.00265294118 Z" mask="url(#logo_white-b)"/>
  </g>
</svg>
