<svg xmlns="http://www.w3.org/2000/svg" width="80" height="80" viewBox="0 0 80 80">
  <g fill="none">
    <circle cx="39.994" cy="39.994" r="39.994" fill="#D42428"/>
    <path fill="#CC202D" d="M68.2730802,11.7097046 C83.8918143,27.329789 83.8931646,52.6536709 68.2730802,68.2737553 C52.654346,83.8924895 27.3291139,83.8931646 11.7090295,68.2737553 L68.2730802,11.7097046 Z"/>
    <path fill="#BA202E" d="M79.1844726,48.0043882 L59.3900422,28.2106329 L36.044557,30.868692 L21.9232068,52.7306329 L48.3100422,79.1167932 C63.8239662,75.8349367 76.0205907,63.5632068 79.1844726,48.0043882 Z"/>
    <path fill="#FFF" d="M60.9233755,32.2764557 C60.9233755,28.9237131 58.2072574,26.2062447 54.8563713,26.2062447 L26.3918987,26.2062447 C23.0416878,26.2062447 20.3260759,28.9243882 20.3260759,32.2764557 L20.3260759,48.5539241 C20.3260759,51.9066667 23.0421941,54.624135 26.3918987,54.624135 L54.855865,54.624135 C58.2074262,54.624135 60.9228692,51.9059916 60.9228692,48.5539241 L60.9228692,32.2764557 L60.9233755,32.2764557 Z M36.5637131,47.2820253 L36.5637131,31.9935865 L48.1578059,39.6381435 L36.5637131,47.2820253 Z"/>
  </g>
</svg>
