<svg xmlns="http://www.w3.org/2000/svg" width="24" height="24" viewBox="0 0 24 24">
    <g fill="none" fill-rule="evenodd">
        <path fill="#005CC7" fill-rule="nonzero" d="M7.437 12.478l1.975.716.765 2.39c.049.152.241.209.369.107l1.1-.872a.336.336 0 0 1 .401-.01l1.986 1.4c.137.097.33.024.364-.136l1.455-6.8c.038-.176-.14-.322-.312-.257l-8.105 3.038c-.2.075-.198.35.002.424zm2.616.335l3.86-2.31c.07-.042.141.05.082.103l-3.186 2.878a.636.636 0 0 0-.205.384l-.108.781c-.015.104-.165.115-.195.014l-.417-1.425a.373.373 0 0 1 .17-.425z"/>
        <circle cx="12" cy="12" r="11.5" stroke="#005CC7" opacity=".2"/>
    </g>
</svg>
