<svg xmlns="http://www.w3.org/2000/svg" width="24" height="24" viewBox="0 0 24 24">
    <g fill="none" fill-rule="evenodd">
        <path fill="#005CC7" fill-rule="nonzero" d="M16.091 9.363a3.299 3.299 0 0 1-.414.147 1.78 1.78 0 0 0 .373-.64.133.133 0 0 0-.046-.148.14.14 0 0 0-.156-.01c-.3.174-.625.3-.965.372a1.872 1.872 0 0 0-1.288-.513c-1.014 0-1.84.807-1.84 1.798 0 .078.005.156.015.233a4.745 4.745 0 0 1-3.233-1.676.14.14 0 0 0-.226.017 1.766 1.766 0 0 0 .188 2.07 1.577 1.577 0 0 1-.246-.108.141.141 0 0 0-.136 0 .135.135 0 0 0-.07.115v.024c0 .647.357 1.229.901 1.546a1.621 1.621 0 0 1-.14-.02.14.14 0 0 0-.13.043.133.133 0 0 0-.027.131c.201.615.72 1.067 1.348 1.205a3.312 3.312 0 0 1-2.13.463.139.139 0 0 0-.147.089.134.134 0 0 0 .056.16c.802.502 1.73.768 2.683.768 1.874 0 3.046-.864 3.699-1.588.814-.903 1.281-2.098 1.281-3.279 0-.05 0-.099-.002-.149a3.53 3.53 0 0 0 .823-.852.133.133 0 0 0-.009-.162.14.14 0 0 0-.162-.036z"/>
        <circle cx="12" cy="12" r="11.5" stroke="#005CC7" opacity=".2"/>
    </g>
</svg>
